<svg xmlns="http://www.w3.org/2000/svg" id="Capa_1" viewBox="197.22 358.61 685.53 362.77"><defs/><path d="M755.3 408.84H451.37c-18.82 0-34.07 15.25-34.07 34.07s15.25 34.07 34.07 34.07h41.03v90.55c0 54.96-31.22 82.64-68.58 82.64-30.04 0-61.91-8.54-71.7-53.88-3.96-18.33-19.46-31.84-38.22-31.84h-1.22c-24.67 0-42.84 22.68-38.07 46.88 15.45 78.46 72.06 110.05 149.2 110.05 92.76 0 150.35-65.06 150.35-153.86v-89.67h181.12c30.33 0 45.28 19.78 45.28 40.45s-15.39 42.63-45.72 43.08h-108c-24.85 0-44.99 20.14-44.99 44.99v69.08c0 22.7 18.4 41.1 41.1 41.1 22.7 0 41.1-18.4 41.1-41.1v-46.81h70.33c69.02 0 128.37-34.73 128.37-111.23s-53.63-108.58-127.49-108.58Z" class="cls-1"/><path d="M292.88 529.96c-7.46 0-14.86-.96-22.01-2.86-4.64-1.23-7.4-5.99-6.17-10.63 1.23-4.64 5.98-7.41 10.63-6.17a68.416 68.416 0 0 0 17.55 2.27c37.66 0 68.29-30.64 68.29-68.29 0-3.43-.26-6.88-.77-10.27a8.682 8.682 0 0 1 7.3-9.89c4.77-.73 9.18 2.56 9.89 7.3.64 4.24.97 8.57.97 12.86 0 47.24-38.44 85.68-85.68 85.68ZM234.37 502.99c-2.45 0-4.89-1.03-6.61-3.04a85.693 85.693 0 0 1-20.55-55.66c0-47.24 38.43-85.68 85.68-85.68 24.32 0 47.59 10.4 63.83 28.52 3.2 3.57 2.91 9.07-.67 12.28-3.57 3.22-9.07 2.9-12.28-.67-12.95-14.45-31.49-22.74-50.88-22.74-37.65 0-68.29 30.64-68.29 68.29 0 16.27 5.81 32.02 16.37 44.36 3.12 3.65 2.7 9.14-.96 12.26a8.68 8.68 0 0 1-5.65 2.09Z" class="cls-1"/><path d="M211.59 528.99c-4.78 0-8.65-1.35-11.29-4.39-5.35-6.16-3.75-16.22 4.87-30.76a5.678 5.678 0 0 1 7.76-1.98 5.664 5.664 0 0 1 1.98 7.75c-7.19 12.11-6.61 16.94-6.06 17.58 4.01 4.63 42.06-9.24 97.53-57.35 55.45-48.1 74.59-83.81 70.56-88.46-.53-.63-5.25-1.89-18.25 3.52-2.89 1.21-6.19-.17-7.4-3.05-1.2-2.89.17-6.2 3.05-7.39 15.61-6.48 25.8-6.64 31.14-.49 16.53 19.06-39.66 76.64-71.69 104.42-26.91 23.34-77.06 60.61-102.2 60.61Z" class="cls-1"/></svg>