<svg xmlns="http://www.w3.org/2000/svg" viewBox="0 0 1108.55 783.05"><defs><style>.cls-1{fill:#ffe0b3}.cls-1,.cls-2,.cls-3,.cls-4,.cls-5,.cls-7,.cls-8,.cls-9{stroke-width:0}.cls-2{fill:#532d63}.cls-3{fill:#ff9173}.cls-4{fill:#bb5355}.cls-5{fill:#9a3666}.cls-7{fill:#803c7c}.cls-8{fill:#623d7a}.cls-9{fill:#653675}</style></defs><g style="isolation:isolate"><g id="_1" data-name="1"><circle cx="199.36" cy="583.69" r="199.31" style="mix-blend-mode:screen;opacity:.2;fill:#4d52ff;stroke-width:0" transform="rotate(-45 199.363 583.691)"/><circle cx="199.36" cy="583.69" r="164.69" style="fill:#9450ff;mix-blend-mode:screen;opacity:.2;stroke-width:0" transform="rotate(-45 199.363 583.691)"/><path d="M112.74 474.29c35.52-33.96 353.74-222.37 417.44-246.73 63.15-24.15 100.42-68.01 143.95-79.96 43.28-11.88 66.84-33.67 93.85-57.16 26.88-23.37 65.19-13.84 65.19-13.84s-46.84 29.23-51.84 57.44c-5.02 28.29-29.52 32.2-22.12 51.22 7.4 19.03 65.57-14.03 90.36-52.15 24.65-37.92 70.23-43.82 112.04-36.04 41.64 7.75 55.41-27.43 82.66-39.93 27.14-12.45 64.28-8.02 64.28-8.02s-43.38 20.37-51.35 52.04c-7.99 31.77-47.94 75.31-75.97 80.7-28.13 5.42-62.36 43.66-64.8 62.69-2.44 19.06 43.72 20.13 65.12-6.58 0 0-9.43 60.64-64.38 74.83-55.35 14.3-79.99 20.61-96.75 56.51-16.84 36.06-89.28 61.38-134.51 99.13-45.58 38.05-370.18 247.5-434.89 256.18-25.14 3.37-32.18 1.72-79.53-13.5-47.54-15.28-72.17-36.09-86.07-56.82-11.06-16.5-23.55-49.94-20.03-80.17 5.78-49.68 28.03-81.36 47.36-99.84Z" class="cls-4"/><path d="M131.3 484.83c22.91-18.7 273.73-166.95 310.75-186.78 36.81-19.73 113.54-50.98 166.81-56.32 41.63-4.17 47.16-31.8 79.39-43.79 0 0-18.13 36.53-22.19 62.78-6.66 43.05-50.71 65.05-47.18 80.17 3.53 15.13 82.86-34.77 104.61-63.8 21.65-28.9 63.68-42.43 93.42-47.63 29.63-5.18 61.55-35.68 61.55-35.68s-8.76 36.17-24.06 62.9c-33.15 57.94-79.86 51.74-106.63 84.72-28.97 35.69-27.41 77.48-121.37 144.08-77.25 54.77-298.6 187-324.55 199.68-26.04 12.73-61.96 31.71-114.96 17.05-29.22-8.08-66.91-24.39-89.48-58.35-12.16-18.29-22.64-51.95-16.28-80.89 8.77-39.93 34.97-65.74 50.18-78.16Z" class="cls-3"/><path d="M169.71 482.57s78.08-39.9 116.91-58.15c38.61-18.16 68.94-11.91 96.72-19.56 27.68-7.61 36.3-41.08 51.78-55.93 15.44-14.81 39.94-21.4 54.88-21.58 0 0-22.18 14.96-23.43 33.44-1.25 18.5-9.22 49.34-21.22 60.81-12.02 11.5-29.92 24.78-22.07 32.77 7.85 7.99 25.16-2.71 46.45-19.45 21.21-16.68 25.34-36.07 41.22-53.5 15.84-17.38 36.83-33.84 59.81-47.26 0 0-27.53 28.6-28.23 51.1-.7 22.54-2.5 50.28-15.18 65.63-12.72 15.38-65.48 52.74-69.11 69.72-3.63 17.01 30.6-14.47 49.11-19.9 25.26-7.42 32.08 8.43 63.08-10.79-17.62 32.75-60.02 34.83-81.73 60.45-26.59 31.37-58.95 26.79-79.13 44.09-20.24 17.37-122.62 80.23-122.62 80.23s-52.78 29.05-112.09 5.62c-71.08-28.08-76.85-69.87-76.58-99.26.6-64.43 71.43-98.49 71.43-98.49Z" class="cls-1"/><path d="M567.77 461.87c18.96-4.97 40.27-4.2 63.3-12.03 22.96-7.8 36.3-33.92 45.79-50 9.47-16.05 11.45-47.36 30.94-60.76 0 0-43.79 11.1-59.97 25.12-16.23 14.06-21.5 35.27-35.37 46.28-13.89 11.03-34.99 30.69-44.69 51.39Z" class="cls-1"/><path d="M999.21 230.88c10.04-2.55 21.38-1.99 33.59-6.07 12.19-4.07 19.12-18.13 24.07-26.79 4.95-8.65 5.78-25.64 16.13-32.82 0 0-23.36 5.8-31.91 13.32-8.56 7.53-11.21 19-18.52 24.87-7.31 5.88-18.38 16.37-23.37 27.48Z" class="cls-4"/><path d="M511.72 335.41c6.01-4.65 24.47-7.22 38.11-17.62 13.61-10.38 9.56-21.61 24.63-28.89 0 0-16.54.71-29.3 7-12.77 6.29-13.12 14.69-20.5 19.09-7.39 4.41-12.95 20.43-12.95 20.43Z" class="cls-1"/><path d="M1062.08 31.66c3.9-3.16 15.97-4.8 24.83-11.88 8.84-7.07 6.09-14.85 15.93-19.78 0 0-10.86.38-19.17 4.63-8.32 4.26-8.48 10.05-13.28 13.03-4.8 2.99-8.31 14-8.31 14ZM832.08 376.67c4.08-3.36 16.64-5.31 25.9-12.84 9.25-7.52 6.45-15.55 16.72-20.86 0 0-11.28.61-19.96 5.19-8.69 4.59-8.9 10.61-13.91 13.8-5.02 3.2-8.75 14.71-8.75 14.71Z" class="cls-4"/><path d="M746.27 309.73c8.99-5.45 21-4.28 35.87-17.4 14.83-13.09 22.57-16.97 26.94-21.41 4.36-4.44 7.03-17.83 7.03-17.83s-13.26 9.83-26.39 14.5c-13.15 4.68-25.82 11.2-32.08 20.56-6.27 9.38-11.36 21.59-11.36 21.59Z" class="cls-1"/><path d="M856.03 74.37c8.78-5.21 20.56-3.91 35.07-16.55 14.48-12.6 22.04-16.29 26.31-20.58 4.26-4.29 6.82-17.34 6.82-17.34s-12.96 9.43-25.8 13.83c-12.87 4.41-25.25 10.61-31.35 19.68-6.11 9.09-11.05 20.95-11.05 20.95Z" class="cls-4"/><path d="M898.96 175.33c19.11-3 28.24-31.91 50.09-30.9 17.09.79 31.68-6.83 42.52-18.29 0 0-14.14-.38-36.96-2.33-22.88-1.95-36.88 1.61-46.38 17.39-9.52 15.81-9.27 34.13-9.27 34.13ZM721.28 415.94c23.57-6.68 46.3-16.09 67.65-39.68 16.26-17.97 23.59-39.64 38.89-50.97 0 0-42 4.2-62.93 23.58-17.36 16.06-28.41 57.25-43.6 67.06ZM688.39 277.69c11.27-2.16 24.24-14.56 33.61-25.87 8.85-10.68 11.55-23.94 20.77-34.01 0 0-25.86-2.3-39.95 16.28-14.13 18.63-7.21 28.49-14.43 43.6ZM709.18 177.33c8.31-6.33 28.44-10.56 39.42-21.56 10.96-10.98 15.34-36.87 15.34-36.87s-20.54 10.95-33.21 21.62c-19.48 18.14-21.55 36.81-21.55 36.81Z" class="cls-3"/><path d="M356.06 533.36c-15.57-44.31-61.77-73.04-78.23-81.81-30.68-16.34-98.96-10.62-129.13 2.12-30.72 12.98-63.25 39.12-82.02 78.19-10.93 22.76-13.1 56.33-4.35 86.78 5.14 19.63 13.98 40.34 26.41 55.32 28.74 36 75.23 51.04 119.27 54.61 43.32 3.51 96.03-19.58 119.51-49.2 21.08-24.42 45.95-96.45 28.54-146.01Z" class="cls-4"/><path d="M228.96 471.69c-17.44-12.07-44.96-11.16-54.41-10.31-17.63 1.58-46.93 20.15-57.46 32-10.73 12.07-19.16 29.28-18.37 47.79.46 10.78 7.41 23.3 18.52 32.07 6.94 5.77 15.79 11.03 24.9 13.38 21.4 5.91 45.81.04 66.42-9.34 20.27-9.23 38.49-30.23 42.04-46.5 3.7-13.83-2.13-45.58-21.63-59.08Z" class="cls-3"/><path d="M277.84 451.55c14.03 10.5 33.43 47.84 31.97 73-1.47 25.44-15.66 39.08-21.13 53.12-5.52 14.15-11.33 37.01-25.38 52.32-14.22 15.49-51.33 32.95-102.02 28.1-85.25-8.17-104.18-71.96-104.18-71.96 1.14 25.41 11.81 63.92 31.66 87.83 28.74 36 75.23 51.04 119.27 54.61 43.32 3.51 96.03-19.58 119.51-49.2 26.06-32.48 44.14-101.6 28.54-146.01-15.76-44.85-58.21-69.38-78.23-81.81Z" class="cls-7"/><path d="M198.12 645.6c11.89-1.23 24.19-3.24 34.09-10.03 9.9-6.8 16.69-19.65 13.02-31.13-3.18-9.95-12.83-16.04-21.79-21.28-6.17-3.61-12.47-7.27-19.47-8.68-7.5-1.52-15.39-.31-22.55 2.48-12.13 4.73-22.68 14.47-26.74 26.95-3.53 10.87-1.35 26.14 6.63 34.76 8.79 9.5 25.04 8.14 36.79 6.92ZM286.02 560c6.88-4.41 10.38-12.26 12.76-19.89 2.13-6.81 3.65-14.05 2.15-21.08-1.51-7.03-6.67-13.8-13.93-15.52-6.65-1.58-13.43 1.22-19.33 4.38-7.02 3.75-13.83 8.23-18.51 14.49-4.68 6.26-6.96 14.6-4.32 22.01 3.54 9.96 10.89 8.82 18.82 12.29 8.06 3.52 12.66 9.55 22.35 3.33ZM231.67 476.58c8.6-4.45 19.16-5.69 21.85-11.21 1.58-3.25.09-6.63-1.89-8.62-1.99-1.99-4.72-3.02-7.41-3.82-13.18-3.95-55.05-6.29-59.61 13-1.96 8.29 7.65 12.86 14.25 15.33 12.11 4.53 21.84 1.01 32.82-4.68Z" class="cls-3"/><path d="M196.68 641.48c11.37-1.15 23.13-3.02 32.59-9.44 9.46-6.42 15.93-18.58 12.4-29.46-3.06-9.43-12.31-15.21-20.88-20.19-5.9-3.43-11.94-6.91-18.64-8.26-7.18-1.45-14.72-.32-21.56 2.31-11.6 4.46-21.67 13.66-25.53 25.48-3.36 10.29-1.24 24.75 6.41 32.94 8.43 9.01 23.97 7.76 35.2 6.63ZM283.03 559.39c6.49-4.37 9.84-12.05 12.15-19.52 2.06-6.66 3.56-13.74 2.22-20.58-1.34-6.84-6.12-13.39-12.9-15-6.21-1.48-12.6 1.32-18.16 4.46-6.61 3.72-13.04 8.15-17.48 14.31-4.45 6.15-6.66 14.31-4.26 21.51 3.22 9.67 10.12 8.5 17.53 11.8 7.52 3.35 11.77 9.19 20.92 3.03Z" class="cls-7"/><path d="M101.09 523.69c8.39-.06 16.36 6.06 18.74 13.73 2.38 7.67-.57 16.27-6.7 21.52-4.7 4.02-11.04 6.26-15.03 10.92-3.13 3.65-4.49 8.43-7.38 12.26-2.89 3.83-8.58 6.62-12.91 4.07-3.24-1.91-4.24-5.89-4.64-9.45-1.86-16.68 4.14-52.87 27.93-53.05Z" class="cls-3"/><path d="M228.86 475.12c6.39-3.85 18.3-6.83 20.05-9.71 1.75-2.88.16-5.35-1.71-7.2-1.86-1.86-4.43-2.82-6.95-3.57-12.35-3.69-51.58-5.92-55.83 12.07-1.83 7.73 7.18 12.01 13.36 14.32 11.35 4.24 21.17.06 31.07-5.9Z" class="cls-7"/><path d="M107.29 562.98c2.04-1.24 4.06-2.51 5.84-4.04 6.14-5.25 9.08-13.85 6.7-21.52s-10.35-13.8-18.74-13.73c-.16 0-.31.02-.47.03-1.44 5.59-2.17 11.45-1.91 17.44.3 7.04 3.39 14.83 8.58 21.82ZM227.55 543.63c5.8-6.64 6.88-17.14 1.52-24.34-6.71-9.01-21.37-10.07-30.74-3.99-9.07 5.89-18.71 21.83-9.72 31.24 9.76 10.22 30.8 6.4 38.94-2.91Z" class="cls-1"/><path d="M99.99 523.43c7.91-.18 15.34 5.82 17.48 13.43 2.14 7.61-.76 16.22-6.61 21.54-4.49 4.07-10.49 6.39-14.32 11.09-3 3.68-4.35 8.46-7.13 12.32-2.78 3.85-8.18 6.71-12.23 4.23-3.03-1.86-3.92-5.81-4.24-9.35-1.53-16.6 4.63-52.75 27.05-53.26ZM112.39 619.78c-2.13-3.66-4.27-7.32-6.4-10.98-1.86-3.2-3.95-6.59-7.35-8.05-3.4-1.45-8.35.34-8.56 4.03 0 0-2.18 5.47.24 10.55 2.92 6.1 10.94 12.04 16.84 12.83 2.43.32 5.43-.03 6.5-2.24.95-1.97-.17-4.26-1.27-6.15ZM224.52 543.28c5.48-6.52 6.59-16.74 1.67-23.69-6.17-8.69-19.83-9.58-28.63-3.57-8.52 5.82-17.67 21.43-9.38 30.49 9 9.84 28.66 5.91 36.34-3.23Z" class="cls-7"/><path d="M297.33 615.76c-3.88 7.71-7.86 16.52-5 24.29 2.89 7.85 12.52 11.78 21.06 9.97 8.54-1.81 15.72-8.36 19.98-15.99 2.58-4.61 3.92-11.05-.04-14.19-.85-.67-1.9-1.14-2.53-2.03-1.23-1.74-.32-4.18.17-6.33 1.22-5.27-.6-10.96-4.58-14.37-14.55-12.47-23.55 7.69-29.06 18.63ZM334.99 573.78c1.97 1.57 4.44 2.65 6.94 2.46 2.55-.19 4.87-1.69 6.56-3.61 3.48-3.95 4.57-9.63 3.73-14.83-.84-5.2-1.81-9.97-4.93-14.21-1.27-1.73-4.69-3.56-6.81-3.2-1.65.28-4.46 2.66-5.38 4.05-2.47 3.76-3.64 6.34-5.1 10.59-2.41 7.01-.91 14.04 4.99 18.74ZM243.68 699.32c6.5.24 12.99.49 19.49.73 1.12.04 2.29.09 3.29.6 2.69 1.36 2.85 5.43 1.07 7.86-1.78 2.43-4.76 3.6-7.6 4.61-18.45 6.55-38.56 11.33-57.48 6.32-2.53-.67-5.2-1.65-6.63-3.84-11.35-17.35 42.74-16.46 47.86-16.27ZM185.8 694.88c4.77-.14 9.34-1.92 14.08-2.45 1.98-.22 4.02-.23 5.87-.96 4.07-1.6 6.2-6.57 5.27-10.84-.92-4.27-4.38-7.7-8.4-9.43-4.02-1.73-8.53-1.95-12.89-1.57-4.77.42-9.7 1.65-13.22 4.9-8.57 7.92-1.36 20.66 9.29 20.36ZM279.25 639.09c-1.96-2.12-5.96-2.23-7.49.22 0 0-4.02 2.24-5.03 5.14-1 2.9.21 6.5 2.92 7.94 1.97 1.05 4.46.9 6.42-.15 1.97-1.05 3.42-2.93 4.22-5.01 1.04-2.7.91-6.03-1.05-8.15Z" class="cls-9"/><path d="M199.4 495.66c-1.29-1.4-3.64-1.28-5.3-.02 0 0-2.3 1.64-2.97 3.56-.66 1.92.14 4.29 1.93 5.25 1.3.69 2.94.6 4.24-.1 1.3-.69 2.26-1.93 2.79-3.31.68-1.78.6-3.98-.69-5.38ZM141.47 561.16c-1.11-1.2-3.11-1.09-4.53-.02 0 0-1.97 1.41-2.54 3.04-.57 1.64.12 3.67 1.65 4.49 1.11.59 2.52.51 3.63-.08s1.93-1.65 2.38-2.83c.58-1.52.52-3.41-.59-4.61Z" class="cls-4"/><path d="M347.32 597.16c-1.59-1.05-3.84-.37-5.14 1.26 0 0-1.84 2.15-2.03 4.17-.18 2.02 1.17 4.13 3.13 4.63 1.43.36 3-.13 4.09-1.11 1.09-.99 1.73-2.42 1.91-3.88.24-1.89-.37-4.01-1.97-5.06Z" class="cls-8"/><path d="M270.39 593.54c-1.9-2.06-5.35-1.88-7.78-.03 0 0-3.39 2.41-4.36 5.23-.97 2.82.2 6.3 2.83 7.71 1.91 1.02 4.32.88 6.23-.14 1.91-1.02 3.32-2.84 4.1-4.86 1-2.62.88-5.85-1.02-7.91Z" class="cls-7"/><path d="M147.39 495.61c-1.08-1.17-3.05-1.07-4.44-.01 0 0-1.93 1.38-2.49 2.98-.56 1.61.12 3.59 1.61 4.4 1.09.58 2.47.5 3.55-.08 1.09-.58 1.89-1.62 2.34-2.77.57-1.49.5-3.34-.58-4.51ZM169.27 535.88c1.11 1.79 3.68 2.15 5.74 1.12 0 0 2.84-1.3 3.96-3.24 1.12-1.94.75-4.68-.99-6.09-1.26-1.02-3.07-1.26-4.62-.78-1.55.48-2.85 1.62-3.71 3-1.11 1.79-1.48 4.19-.37 5.98ZM163.1 563.22c-1.25-2.99-5.05-3.99-8.42-2.76 0 0-4.63 1.53-6.79 4.37-2.17 2.83-2.27 7.18.02 9.69 1.66 1.82 4.34 2.51 6.81 2.02 2.47-.48 4.72-2.04 6.36-4.04 2.12-2.6 3.27-6.29 2.03-9.28ZM171.49 510.96c-1.46-4.93-7.3-7.1-12.83-5.66 0 0-7.56 1.72-11.47 5.88s-4.8 11.03-1.6 15.35c2.32 3.14 6.43 4.64 10.41 4.25 3.98-.38 7.8-2.5 10.72-5.43 3.79-3.79 6.23-9.47 4.77-14.39Z" class="cls-1"/><path d="M136.33 685.46c2.01 1.44 4.1 2.97 5.19 5.19 1.09 2.22.77 5.34-1.35 6.62-1.55.93-3.48.44-5.28.21-12.31-1.58-32.26-12.14-34.36-26.66-1.41-9.78 8.37-4.82 12.43-2.05 7.9 5.4 15.59 11.13 23.37 16.7ZM319.49 514.52c1.4 2.02 5.42 7.35 9.9 5.21 1.59-.76 2.73-2.26 3.36-3.91 1.22-3.21.61-6.89-.93-9.95-1.77-3.5-8.93-13.84-13.58-9.94-4.45 3.73-1.16 15.1 1.26 18.59ZM108.02 649.78c-2.82-2.9-7.63-2.84-8.69-1.22 0 0-1.81.91.3 4.72 2.11 3.81 9.81 7.77 12.16 5.51 2.35-2.26-1.13-6.29-3.77-9.01Z" class="cls-9"/><path d="M132.06 506.78c-.48-1.49-1.85-2.58-3.35-3.03-1.5-.45-3.12-.34-4.65-.03-4.04.82-7.89 3.15-9.92 6.73-2.03 3.59-3.06 7.56-.87 10.65 2.19 3.08 5.32 2.96 6.82 2.5 1.51-.46 2.77-1.49 3.91-2.57a36.69 36.69 0 0 0 6.87-8.72c.95-1.69 1.78-3.67 1.19-5.52Z" class="cls-7"/><path d="M306.7 675.14c.44 1.5 1.77 2.63 3.26 3.13 1.49.5 3.11.44 4.65.17 4.06-.7 7.98-2.91 10.11-6.44 2.14-3.53 3.28-7.47 1.19-10.62-2.1-3.15-5.23-3.12-6.75-2.7-1.52.42-2.81 1.41-3.99 2.46-2.78 2.46-5.21 5.34-7.12 8.52-1 1.66-1.89 3.62-1.35 5.48Z" class="cls-9"/><path d="M189.74 484.77c-.51-2.17-2.47-3.79-4.62-4.42-2.14-.63-4.44-.42-6.63.02-3.42.68-8.65 4.07-8 7.61.65 3.53 7.34 5.81 11.17 5.22 2.17-.33 4.33-1.07 5.96-2.53 1.63-1.47 2.62-3.76 2.11-5.89Z" class="cls-7"/><path d="M244.23 682.67c-.51-2.17-2.47-3.79-4.62-4.42-2.14-.63-4.44-.42-6.63.02-3.42.68-8.65 4.07-8 7.61.65 3.53 7.34 5.81 11.17 5.22 2.17-.33 4.34-1.07 5.96-2.53 1.63-1.47 2.62-3.76 2.11-5.89Z" class="cls-8"/><path d="M108.1 596.48c2.17-.52 3.78-2.49 4.4-4.63.62-2.14.4-4.44-.04-6.63-.69-3.42-4.1-8.64-7.63-7.98-3.53.66-5.78 7.35-5.18 11.19.34 2.16 1.08 4.33 2.55 5.95 1.47 1.62 3.77 2.6 5.9 2.09Z" class="cls-7"/><path d="M219.01 581.36c-5.34-3.07-10.83-6.02-16.85-7.23-7.18-1.45-14.72-.32-21.56 2.31-11.6 4.46-21.67 13.66-25.53 25.48-1.83 5.62-2.02 12.48-.58 18.89 1.03 1.97 2.27 3.78 3.74 5.34 7.83 8.32 22.26 7.18 32.69 6.15 10.56-1.04 21.47-2.76 30.25-8.66 8.78-5.9 14.76-17.11 11.47-27.14-2.17-6.6-7.63-11.26-13.63-15.14Z" class="cls-9"/><path d="M214.16 589.4c-4.07-2.33-8.25-4.56-12.83-5.48-5.46-1.1-11.2-.26-16.4 1.71-8.82 3.35-16.46 10.29-19.38 19.2-1.39 4.24-1.52 9.42-.42 14.26.79 1.49 1.73 2.86 2.85 4.04 5.97 6.29 16.94 5.46 24.87 4.69 8.03-.77 16.33-2.05 22.99-6.5 6.67-4.45 11.21-12.9 8.69-20.48-1.66-4.99-5.82-8.51-10.38-11.45Z" class="cls-5"/><path d="M276.68 504.42c-3.6.82-7.11 2.5-10.35 4.33-6.61 3.72-13.04 8.15-17.48 14.31-4.45 6.15-6.66 14.31-4.26 21.51.98 2.93 2.3 4.86 3.86 6.23 1.75 1.55 3.03 1.69 5.04 2.56 1.76.76 4.16 1.05 5.67 1.89.97.32 1.95.68 2.95 1.12 1.14.51 2.19 1.07 3.21 1.64 2.83.7 5.89.39 9.87-2.1 6.4-4.01 9.64-11.18 11.83-18.17 1.95-6.23 3.35-12.86 1.91-19.3-1.38-6.17-5.91-12.1-12.25-14.01Z" class="cls-9"/><path d="M278.5 514.14c-3.17-.76-6.11.29-8.27 1.71-4.42 2.89-8.73 6.29-11.78 10.92-3.05 4.63-4.67 10.7-3.24 15.97.58 2.15 1.41 3.54 2.41 4.52 1.12 1.11 1.95 1.19 3.26 1.79 1.14.53 2.71.69 3.69 1.28.63.22 1.27.46 1.91.77.74.35 1.42.75 2.08 1.15 1.84.46 3.86.17 6.53-1.75 4.29-3.09 6.56-8.45 8.15-13.66 1.41-4.64 2.46-9.56 1.65-14.29-.78-4.53-3.21-7.63-6.38-8.39Z" class="cls-5"/><path d="M241.67 469.48c1.27-2.65-.21-4.93-1.96-6.68-1.86-1.86-4.43-2.82-6.95-3.57-8.72-2.61-30.81-4.47-44.56.97-1.85 1.8-3.18 3.94-3.79 6.5-1.83 7.73 7.18 12.01 13.36 14.32 11.35 4.24 21.17.06 31.07-5.9 3.48-2.1 8.59-3.93 12.81-5.64Z" class="cls-9"/><path d="M232.1 466.09c1.05-1.31.21-2.35-.77-3.04-1.04-.74-2.42-1.15-3.77-1.48-4.67-1.15-19.86-2.78-23.42-.47-1.32.86-1.55 1.42-1.78 2.38-.71 2.88 4.16 4.66 7.49 5.65 6.11 1.81 11.14.42 16.16-1.64 1.77-.72 3.96-.36 6.09-1.4Z" class="cls-5"/><path d="M209.37 512.21c-4.19.19-8.37 1.47-11.81 3.82-8.52 5.82-17.67 21.43-9.38 30.49 2.25 2.46 5.18 4.06 8.41 4.94 8.03-.18 16.4-3.7 20.82-8.95 5.48-6.52 6.59-16.74 1.67-23.69-2.36-3.33-5.83-5.51-9.71-6.6Z" class="cls-9"/><path d="M211.47 520.06c-2.2.25-4.42 1.2-6.29 2.83-4.63 4.02-9.9 14.36-5.85 19.95 1.1 1.52 2.58 2.46 4.25 2.92 4.21-.37 8.69-2.89 11.16-6.42 3.07-4.37 3.97-11 1.6-15.33-1.13-2.08-2.88-3.37-4.87-3.95Z" class="cls-5"/><path d="M117.47 536.86c-1.52-5.42-5.75-9.97-10.9-12.11-21.02 2.16-26.73 36.44-25.19 52.43.3 3.14 1.07 6.6 3.41 8.61 1.8-.95 3.45-2.36 4.62-3.99 2.78-3.86 4.12-8.63 7.13-12.32 3.83-4.69 9.84-7.02 14.32-11.09 5.86-5.31 8.75-13.93 6.61-21.54Z" class="cls-9"/><path d="M105.46 541.32c-.28-3.07-1.84-5.66-3.98-6.87-4.01-1.05-7.92 5.12-10.41 10.72-2.84 6.4-4.39 14.18-4.65 19.01-.09 1.78-.18 4.49.89 4.88 1.07.39 1.71-1.34 2.35-2.26 1.52-2.19 2.47-4.9 4.07-6.98 2.05-2.66 4.9-3.98 7.19-6.29 3-3.01 4.92-7.9 4.52-12.22Z" class="cls-5"/><path d="M325.68 619.27c-.85-.67-1.9-1.14-2.53-2.03-1.23-1.74-.32-4.18.17-6.33 1.22-5.27-.6-10.96-4.58-14.37-1.51-1.29-2.95-2.21-4.34-2.85-7.8 2.58-13.27 14.51-17.07 22.06-3.88 7.71-7.86 16.52-5 24.29 1.81 4.92 6.27 8.3 11.45 9.69.66-.07 1.31-.17 1.96-.3 8.54-1.81 15.72-8.36 19.98-15.99 2.58-4.61 3.92-11.05-.04-14.19ZM243.68 699.32c-4.18-.16-41.11-.77-48.22 8.5 1.49 1.32 3.53 2.06 5.5 2.58 18.92 5.01 39.03.23 57.48-6.32 2.49-.88 5.05-1.95 6.85-3.82-.69-.15-1.41-.19-2.12-.22-6.5-.24-12.99-.49-19.49-.73ZM202.62 671.19c-4.02-1.73-8.53-1.95-12.89-1.57-4.77.42-9.7 1.65-13.22 4.9-1.19 1.1-2.04 2.29-2.66 3.53 2.14 3.94 6.47 6.86 11.63 6.71 4.77-.14 9.34-1.92 14.08-2.45 1.98-.22 4.02-.23 5.87-.96 1.9-.74 3.35-2.23 4.29-4.03-1.57-2.72-4.18-4.87-7.09-6.13ZM344.23 556.97c-1-5.02-2.11-9.61-5.29-13.61-.36-.45-.88-.9-1.49-1.31-1 .79-1.9 1.71-2.35 2.39-2.47 3.76-3.64 6.34-5.1 10.59-2.41 7.01-.91 14.04 4.99 18.74.49.39 1 .74 1.54 1.06 1.8-.62 3.39-1.86 4.6-3.34 3.24-3.96 4.09-9.51 3.09-14.52ZM112.95 668.76c-1.02-.69-2.4-1.53-3.87-2.23 3.68 12.68 20.7 21.87 32.32 23.93-1.11-2.12-3.12-3.61-5.07-5.01-7.78-5.56-15.47-11.3-23.37-16.7Z" class="cls-2"/></g></g></svg>