<svg xmlns="http://www.w3.org/2000/svg" viewBox="0 0 1124.61 775.91"><defs><style>.cls-2,.cls-3,.cls-4{stroke-width:0}.cls-4{fill:#64d6ff}.cls-2{fill:#dcf4ff}.cls-3{fill:#3380ff}</style></defs><g style="isolation:isolate"><g id="_1" data-name="1"><circle cx="143.07" cy="632.84" r="143.04" style="fill:#3380ff;mix-blend-mode:screen;opacity:.2;stroke-width:0" transform="rotate(-45 143.07 632.838)"/><circle cx="143.07" cy="632.84" r="109.9" style="mix-blend-mode:screen;opacity:.2;fill:#64d6ff;stroke-width:0" transform="rotate(-59.4 143.105 632.871)"/><path d="M465.21 492.75c-4.52-15.16 622.27-447.27 612.58-457.59-9.68-10.32-451.86 295.59-457.27 284.25-5.41-11.34 291.89-205.96 282.21-216.28-9.68-10.32-361.2 197.84-366.09 189.99-4.88-7.86 105.24-68.14 92.41-76.51-12.83-8.37-162.7 86.98-211.71 118.53-49.01 31.55-299.57 191.29-299.57 191.29-77.95 48.49-83.22 125.58-52.29 163.01 39.73 48.08 106.74 44.46 162.6 10.62 0 0 626.56-416.71 612.48-434.1-14.08-17.39-370.82 241.95-375.35 226.79Z" class="cls-3"/><path d="M74.19 592.64c-8.9 17.27-15.17 42.23-8.56 65.72 5.54 19.69 27.82 42.25 53.46 47.37 25.64 5.12 60.47.07 81.95-13.28 21.48-13.35 37.98-45.5 39.57-63.14 1.59-17.63-18.42-67.67-33.69-76.27-15.27-8.6-60.31-11.55-74.82-9.54-14.51 2.01-49.01 31.86-57.91 49.14Z" class="cls-4"/><path d="M119.23 549.06c31.17-22.28 283.72-180.99 289.32-174.31 5.61 6.68-151.93 106.06-149.07 113 2.86 6.94 98.25-48.73 105.16-39.95 6.91 8.78-41.62 44.03-39.81 51.61 1.81 7.59 252.33-152.49 262.83-143.77 10.5 8.72-279.42 218.72-278.66 226.96.76 8.24 107.79-47.4 112.74-41.76 4.95 5.63-197.7 141.56-220.71 151.62-23.01 10.05-81.81-143.39-81.81-143.39Z" class="cls-4"/><path d="M76.52 678.59c40.04 50.32 110.04 22.85 124.52 13.85 21.48-13.35 37.98-45.5 39.57-63.14 1.59-17.63-18.42-67.67-33.69-76.27-15.27-8.6-66.92-10.95-81.43-8.94-34.22 20-93.72 74.41-48.97 134.49Z" class="cls-4"/><path d="M118.99 547.96c31.17-22.28 283.95-179.9 289.56-173.21 5.61 6.68-151.93 106.06-149.07 113 2.86 6.94 98.25-48.73 105.16-39.95 6.91 8.78-41.62 44.03-39.81 51.61 1.81 7.59 252.33-152.49 262.83-143.77 10.5 8.72-279.42 218.72-278.66 226.96.76 8.24 107.79-47.4 112.74-41.76 4.95 5.63-197.7 141.56-220.71 151.62-23.01 10.05-82.05-144.49-82.05-144.49Z" class="cls-4"/><path d="M88.15 598.61c-7.32 14.19-12.47 34.7-7.04 54 4.55 16.18 22.86 34.72 43.93 38.93 21.07 4.21 49.69.06 67.34-10.91 17.65-10.97 31.21-37.39 32.52-51.88 1.31-14.49-15.13-55.6-27.68-62.67-12.55-7.07-49.56-9.49-61.48-7.84-11.92 1.66-40.27 26.18-47.59 40.38Z" class="cls-2"/><path d="M124.99 562.57c22.45-15.59 70.43-42.08 74.3-38.49 3.86 3.59-31.45 28.26-27.73 32.49 3.72 4.23 95.43-46.25 99.78-41.87 4.35 4.37-53.85 46.55-50.58 52.68 3.27 6.14 140.94-68.55 144.99-62.9 4.06 5.65-121.99 102.52-119.96 111.06 2.04 8.54 40.07-4.76 43.93-1.17 3.86 3.59-73.73 54.6-97.34 66.25l-67.39-118.05Z" class="cls-2"/><path d="M656.21 205.15c-1.33 0-2.61-.69-3.33-1.91a3.837 3.837 0 0 1 1.39-5.25l48.95-28.43a3.837 3.837 0 0 1 5.25 1.39c1.07 1.84.44 4.19-1.39 5.25l-48.95 28.43c-.61.35-1.27.52-1.93.52ZM927.59 93.82c-1.27 0-2.52-.63-3.25-1.79a3.847 3.847 0 0 1 1.19-5.3l80.13-50.72c1.79-1.14 4.17-.6 5.3 1.19s.6 4.17-1.19 5.3l-80.13 50.72c-.64.41-1.35.6-2.05.6ZM868.5 251.1c-1.23 0-2.43-.59-3.18-1.68a3.841 3.841 0 0 1 1-5.34l105.5-72.11a3.841 3.841 0 1 1 4.34 6.34l-105.5 72.11c-.66.46-1.42.67-2.17.67ZM1002.54 157.44c-1.26 0-2.49-.62-3.23-1.75-1.16-1.78-.64-4.16 1.13-5.32l20.58-13.34a3.85 3.85 0 0 1 5.32 1.13c1.16 1.78.64 4.16-1.13 5.32l-20.58 13.34c-.65.42-1.37.62-2.09.62ZM1094.4 25.72c-1.23 0-2.43-.59-3.18-1.68a3.841 3.841 0 0 1 1-5.34L1118.6.67a3.841 3.841 0 1 1 4.34 6.34l-26.38 18.03c-.66.46-1.42.67-2.17.67ZM730.95 161.24a3.85 3.85 0 0 1-3.27-1.81 3.842 3.842 0 0 1 1.23-5.29l18.86-11.72a3.84 3.84 0 1 1 4.06 6.52l-18.86 11.72c-.63.39-1.33.58-2.02.58Z" class="cls-3"/></g></g></svg>