<svg xmlns="http://www.w3.org/2000/svg" id="Capa_1" viewBox="161.47 463.53 757.07 152.97"><defs><style>.cls-1{fill:#fff;stroke-width:0px;}</style></defs><path class="cls-1" d="M396.76,484.7h-128.14c-7.93,0-14.37,6.43-14.37,14.37s6.43,14.37,14.37,14.37h17.3v38.18c0,23.17-13.16,34.84-28.91,34.84-12.67,0-26.1-3.6-30.23-22.71-1.67-7.73-8.21-13.42-16.11-13.42h-.51c-10.4,0-18.06,9.56-16.05,19.77,6.51,33.08,30.38,46.4,62.91,46.4,39.11,0,63.39-27.43,63.39-64.87v-37.81h76.36c12.79,0,19.09,8.34,19.09,17.05s-6.49,17.97-19.27,18.16h-45.53c-10.48,0-18.97,8.49-18.97,18.97v29.13c0,9.57,7.76,17.33,17.33,17.33s17.33-7.76,17.33-17.33v-19.74h29.65c29.1,0,54.12-14.64,54.12-46.89s-22.61-45.78-53.75-45.78Z"/><path class="cls-1" d="M201.8,535.77c-3.14,0-6.27-.41-9.28-1.21-1.96-.52-3.12-2.53-2.6-4.48.52-1.96,2.52-3.13,4.48-2.6,2.4.64,4.89.96,7.4.96,15.88,0,28.79-12.92,28.79-28.79,0-1.44-.11-2.9-.32-4.33-.3-2,1.08-3.87,3.08-4.17,2.01-.31,3.87,1.08,4.17,3.08.27,1.79.41,3.61.41,5.42,0,19.92-16.21,36.12-36.12,36.12Z"/><path class="cls-1" d="M177.13,524.4c-1.03,0-2.06-.44-2.79-1.28-5.59-6.53-8.66-14.86-8.66-23.47,0-19.92,16.2-36.12,36.12-36.12,10.26,0,20.07,4.38,26.91,12.03,1.35,1.51,1.23,3.82-.28,5.18-1.5,1.36-3.82,1.22-5.18-.28-5.46-6.09-13.28-9.59-21.45-9.59-15.88,0-28.79,12.92-28.79,28.79,0,6.86,2.45,13.5,6.9,18.7,1.32,1.54,1.14,3.85-.4,5.17-.69.59-1.54.88-2.38.88Z"/><path class="cls-1" d="M167.53,535.36c-2.01,0-3.65-.57-4.76-1.85-2.25-2.6-1.58-6.84,2.05-12.97.67-1.13,2.14-1.51,3.27-.83,1.13.67,1.5,2.13.83,3.27-3.03,5.11-2.79,7.14-2.56,7.41,1.69,1.95,17.73-3.9,41.12-24.18,23.38-20.28,31.45-35.33,29.75-37.29-.22-.27-2.21-.8-7.7,1.48-1.22.51-2.61-.07-3.12-1.29-.51-1.22.07-2.61,1.29-3.12,6.58-2.73,10.88-2.8,13.13-.2,6.97,8.04-16.72,32.31-30.22,44.02-11.35,9.84-32.49,25.55-43.09,25.55Z"/><path class="cls-1" d="M498.71,608.6v-53.64h28.55c13.28,0,22.66,6.3,22.66,19.5s-10.38,19.75-22.82,19.75h-19.33v14.4c0,2.5-2.03,4.52-4.52,4.52h0c-2.5,0-4.52-2.03-4.52-4.52ZM507.75,586.57h19.42c8.13-.08,13.61-2.91,13.61-12.11s-5.81-11.86-13.53-11.86h-19.5v23.98Z"/><path class="cls-1" d="M550.72,607.82l-.07-1.22,24.31-48.26c1.2-2.38,3.64-3.89,6.31-3.89h0c2.67,0,5.11,1.51,6.31,3.89l24.2,48.2.39,1.48-5.65,4.83-2.72-2.06-6.15-12.28h-32.86l-6.18,12.27-2.17,1.8-5.73-4.77ZM568.77,590.63h24.89l-7.47-15.85-4.9-12.2-4.97,12.03-7.55,16.02Z"/><path class="cls-1" d="M622.08,608.56v-53.52h29.96c5.14,0,11.78,1,16.43,4.73,4.07,3.24,6.14,8.39,6.14,13.53s-2.41,10.45-6.55,13.78c-3.32,2.57-7.97,3.57-13.7,3.98l13.78,14.87,1,2.95-4.83,3.86-2.38-1.27-18.93-20.32h-11.78v17.43c0,2.52-2.04,4.56-4.56,4.56h0c-2.52,0-4.56-2.04-4.56-4.56ZM631.21,583.58h21.74c7.97,0,12.53-2.99,12.53-10.37,0-8.05-5.97-10.46-13.44-10.46h-20.83v20.83Z"/><path class="cls-1" d="M685.18,613.12v-58.09h41.95c2.09,0,3.78,1.69,3.78,3.78v.25c0,2.09-1.69,3.78-3.78,3.78h-32.74v17.51h31.24c2.09,0,3.78,1.69,3.78,3.78h0c0,2.09-1.69,3.78-3.78,3.78h-31.24v17.43h32.74c2.09,0,3.78,1.69,3.78,3.78v.24c0,2.09-1.69,3.78-3.78,3.78h-41.95Z"/><path class="cls-1" d="M739.65,613.12v-58.25h27.05c17.18,0,28.96,12.53,28.96,29.12-.08,16.6-11.7,29.13-28.96,29.13h-27.05ZM749.03,605.4h17.84c11.95,0,19.75-8.8,19.75-20.99s-7.64-21.74-19.75-21.74h-17.84v42.74Z"/><path class="cls-1" d="M806.82,613.12v-58.09h41.95c2.09,0,3.78,1.69,3.78,3.78v.25c0,2.09-1.69,3.78-3.78,3.78h-32.74v17.51h31.24c2.09,0,3.78,1.69,3.78,3.78h0c0,2.09-1.69,3.78-3.78,3.78h-31.24v17.43h32.74c2.09,0,3.78,1.69,3.78,3.78v.24c0,2.09-1.69,3.78-3.78,3.78h-41.95Z"/><path class="cls-1" d="M875.88,612.29c-6.3-1.88-11.88-5.29-14.25-11.24-1.07-2.68.99-5.6,3.88-5.6h.73c1.72,0,3.14,1.12,3.85,2.7,1.25,2.79,4.11,4.99,7.55,6.26,3.57,1.16,8.38,1.91,12.53,1.91,3.07,0,6.22-.33,9.21-1.08,5.31-1.24,9.3-3.15,9.88-7.55.08-.58.08-1.08.08-1.58,0-9.37-14.27-8.3-22.91-8.96-10.7-.5-24.89-1.16-24.89-15.35,0-13.11,16.68-17.59,28.3-17.59,10.37,0,22.66,2.76,26.16,12.21,1.01,2.72-.98,5.63-3.87,5.63h-.95c-1.8,0-3.23-1.23-3.93-2.89-2.55-6.04-12.68-7.3-18.49-7.15-5.23,0-17.93,2.07-17.93,9.54,0,6.8,7.47,7.39,15.6,7.8,15.93.16,32.11,2.16,32.11,16.43,0,.83-.08,1.66-.16,2.49-1.08,8.55-10.04,13.52-18.43,15.18-2.82.58-6.14.83-9.62.83-4.98,0-10.13-.58-14.44-1.99Z"/><path class="cls-1" d="M506.85,517.29h0c3.46,0,6.54,2.38,7.23,5.77,1.79,8.77,7.86,10.42,13.59,10.42,7.05,0,12.95-5.23,12.95-15.6v-17.09h-16.72c-3.55,0-6.43-2.88-6.43-6.43h0c0-3.55,2.88-6.43,6.43-6.43h32.15v29.96c0,16.76-10.87,29.04-28.38,29.04-14.53,0-25.19-5.93-28.14-20.67-.92-4.61,2.62-8.96,7.33-8.96Z"/><path class="cls-1" d="M565.37,546v-58.09h41.4c3.57,0,6.47,2.9,6.47,6.47h0c0,3.57-2.9,6.47-6.47,6.47h-26.22v9.71h24.9c3.57,0,6.47,2.9,6.47,6.47v.08c0,3.57-2.9,6.47-6.47,6.47h-24.9v9.38h26.22c3.57,0,6.47,2.9,6.47,6.47v.08c0,3.57-2.9,6.47-6.47,6.47h-41.4Z"/><path class="cls-1" d="M628.61,525.5h0c2.58,0,5.19,1.11,6.51,3.33,2.77,4.65,8.58,5.07,13.01,5.13,3.32,0,13.03-.74,13.03-5.73s-7.97-5.31-13.44-5.31h-3.07c-10.87-.5-25.47-1.91-25.47-17.09,0-15.93,16.76-19.34,28.46-19.34,8.19,0,17.95,1.58,23.44,7.89,4.18,4.81.49,12.36-5.88,12.36h0c-2.3,0-4.61-.94-5.89-2.85-1.97-2.94-7.05-4.12-12.57-4.12-5.97,0-11.95,1.83-11.86,5.64,0,3.91,4.81,4.16,10.04,4.4,15.85.17,31.95,2.32,31.95,17.84,0,10.79-9.29,17.18-19.41,19.09-2.41.49-5.56.74-9.13.74-9.13,0-20.23-2.11-26.07-10.21-3.54-4.9.34-11.78,6.39-11.78Z"/><path class="cls-1" d="M683.68,515.54v-19.87c0-4.29,3.47-7.76,7.76-7.76h.08c4.29,0,7.76,3.47,7.76,7.76v19.87c0,12.28,7.14,18.42,14.27,18.5,7.14,0,14.44-6.06,14.52-18.5v-19.87c0-4.29,3.47-7.76,7.76-7.76h0c4.29,0,7.76,3.47,7.76,7.76v19.87c0,21.33-14.94,31.95-29.87,31.95s-30.04-10.62-30.04-31.95Z"/><path class="cls-1" d="M760.79,525.5h.09c2.58,0,5.19,1.11,6.51,3.33,2.77,4.65,8.58,5.07,13.01,5.13,3.32,0,13.03-.74,13.03-5.73s-7.97-5.31-13.44-5.31h-3.07c-10.86-.5-25.47-1.91-25.47-17.09,0-15.93,16.76-19.34,28.46-19.34,8.19,0,17.95,1.58,23.44,7.89,4.18,4.81.49,12.36-5.88,12.36h0c-2.3,0-4.61-.94-5.89-2.85-1.97-2.94-7.05-4.12-12.57-4.12-5.97,0-11.95,1.83-11.86,5.64,0,3.91,4.81,4.16,10.04,4.4,15.85.17,31.95,2.32,31.95,17.84,0,10.79-9.29,17.18-19.41,19.09-2.41.49-5.56.74-9.13.74-9.15,0-20.3-2.12-26.12-10.28-3.49-4.89.34-11.71,6.35-11.71Z"/><path class="cls-1" d="M708.69,481.89l1.66-7.9c.49-2.31,2.52-3.96,4.88-3.96h1.08c3.43,0,5.84,3.38,4.71,6.62l-2.74,7.9c-.7,2.01-2.59,3.35-4.71,3.35h0c-3.17,0-5.53-2.91-4.88-6.01Z"/><rect class="cls-1" x="550.13" y="604.07" width="9.05" height="9.05" rx="4.52" ry="4.52"/><rect class="cls-1" x="603.23" y="604.07" width="9.05" height="9.05" rx="4.52" ry="4.52"/><rect class="cls-1" x="661.04" y="604.68" width="8.35" height="8.35" rx="4.18" ry="4.18"/></svg>