<svg xmlns="http://www.w3.org/2000/svg" viewBox="0 0 1095.34 705.86"><defs><clipPath id="clippath"><path d="M737.43 248.76a220.932 220.932 0 0 1 16.33 36.68L332.28 428.88a221.455 221.455 0 0 1-9.16-37.18C120.06 466.82-4.71 522 .14 545.9c11.52 56.81 336.97-14.07 571.6-102.16s532.74-227.6 523.39-262.39c-7.11-26.43-150.12 2.93-357.69 67.41Z" style="fill:none;stroke-width:0"/></clipPath><style>.cls-1{fill:#75cfd4}.cls-1,.cls-10,.cls-2,.cls-4,.cls-6{stroke-width:0}.cls-2{fill:#a6e9f0}.cls-4{fill:#497da8}.cls-6{fill:#80aad4}.cls-10{fill:#64c0d4}</style></defs><g style="isolation:isolate"><g id="_1" data-name="1"><ellipse cx="543.02" cy="357.16" rx="252.75" ry="251.17" style="fill:#fff;mix-blend-mode:soft-light;opacity:.3;stroke-width:0" transform="rotate(-39.01 542.973 357.155)"/><ellipse cx="543.02" cy="357.16" class="cls-1" rx="222.61" ry="221.22" transform="rotate(-39.01 543.076 357.176)"/><ellipse cx="543.02" cy="357.16" class="cls-1" rx="222.61" ry="221.22" transform="rotate(-39.01 543.076 357.176)"/><path d="M517.58 538.17c-1.72-6.3-3.5-12.74-7.19-18.13-5.25-7.66-13.73-12.33-20.92-18.22-7.18-5.89-13.61-14.53-12.03-23.68 1.31-7.58 7.66-13.09 11.93-19.5 4.27-6.4 5.76-16.57-.79-20.61-5.46-3.37-12.61-.05-18.93-1.19-8.22-1.48-13.31-10.01-21.03-13.19-4.58-1.88-9.85-1.78-14.23-4.07-5.91-3.09-8.86-9.72-12.12-15.55-8.75-15.66-26.53-29.33-43.56-23.66-5.04 1.68-9.41 4.88-13.8 7.86-10.59 7.2-23.1 15.77-35.63 19.11-.97.26-1.89.45-2.77.62 7.26 31.75 21.68 62.35 43.53 89.32 38.82 47.92 93.66 75.26 150.75 80.64 3.04-12.2.25-27.06-3.22-39.77ZM364.79 294.2c4.04 8.07 8.21 16.33 14.79 22.51 7.51 7.06 13.83 5.9 22.7 7.59 9.1 1.73 13.08 4.54 19.97 11.45 7.26 7.28 16.93 12.64 27.21 12.85 10.28.21 20.94-5.54 24.75-15.1 2.02-5.06 2.08-10.81 4.6-15.64 3.81-7.3 12.42-11.06 16.45-18.23 4.37-7.77 2.43-17.75 6.11-25.87 6.05-13.33 23.93-16.19 33.96-26.84 5.78-6.14 8.55-14.45 11.15-22.47 4.63-14.28 8.87-31.26-.24-43.2-7.4-9.7-20.79-12.04-32.88-13.67-13.46-1.81-29.12-2.92-38.59 6.82-5.89 6.05-8.76 15.81-16.82 18.34-9.89 3.1-19.39-7.24-29.75-6.84-14.08.53-21.21 19.64-35.13 21.83-4.14.65-8.31-.32-12.48-.81a221.952 221.952 0 0 0-34.65 49.17c1.19 2.83 2.56 5.59 3.93 8.33 4.97 9.93 9.94 19.86 14.9 29.78ZM673.7 293.6c-7.41 5.48-14.36 12.02-23.09 14.95-5.76 1.94-11.95 2.18-17.86 3.61-27.95 6.78-42.31 37.02-52.86 63.78-3.64 9.24-7.33 19.43-4.21 28.86 5.55 16.79 29.12 21.7 35.63 38.15 2.84 7.17 1.84 15.31 3.93 22.73 4.3 15.3 23.33 24.48 37.98 18.33 8.62-3.62 14.96-11.29 23.38-15.36 7.21-3.48 15.52-4.11 22.79-7.48 20.79-9.65 25.4-36.39 30.1-58.83.89-4.25 1.89-8.51 3.64-12.48 1.47-3.33 3.44-6.4 4.97-9.7 6.02-13.02 4.17-29.31-4.61-40.65-6.12-7.9-16.34-13.51-20.32-22.95-2.88-6.82.52-11.84-1-18.1-4.82-19.85-26.31-13.84-38.48-4.85ZM693.73 206.25c2.67 6.02 6.16 12.54 4.2 18.83-.74 2.36-2.24 4.61-1.97 7.07.57 5.36 7.92 6.23 13.3 5.88 7.15-.46 16.08 1.64 22.73 1.47a221.869 221.869 0 0 0-40.19-47.91c-1.48 4.47-.09 10.1 1.93 14.66ZM562.32 369.49c-1.87-2.5-4.53-4.25-7.01-6.15a60.069 60.069 0 0 1-16.16-19c-2.11-3.91-3.99-8.29-7.79-10.6-3.8-2.31-10.15-.74-10.5 3.69-1.05 13.19-22.73 18.76-14.44 36.34 1.6 3.4 4.2 6.24 5.93 9.58 2.42 4.68 3.02 10.14 5.47 14.81 3.93 7.51 12.06 11.9 20.2 14.25 4.2 1.21 8.75 2 12.89.58 8.46-2.89 11.43-13.12 13.18-21.89 1.46-7.31 2.71-15.64-1.76-21.61Z" class="cls-10"/><path d="M403.84 185.36c-3.11 2.52-6.12 5.11-9.06 7.75 84.25-59.61 201.1-44.77 266.6 36.08 68.26 84.25 54.86 208.23-29.92 276.92-81.6 66.11-199.57 56.86-269.17-19.04 2.51 3.49 5.09 6.94 7.83 10.32 76.91 94.93 216.7 109.15 312.22 31.76 95.53-77.39 110.62-217.09 33.71-312.02-76.91-94.93-216.7-109.15-312.22-31.76Z" style="fill:#4987ba;stroke-width:0"/><path d="M344.93 301.9c2.49 10.07-7.93 21.48-2.26 30.16 2.65 4.05 7.81 5.5 11.65 8.43 7.42 5.65 8.88 17.66 3.01 24.94-11.8 14.67 14.5 24.87 24.97 29.93 10.25 4.96 23.68 9.53 31.96 1.71 9.96-9.4 2.52-27.59 10.33-38.85 4.77-6.88 14.79-10.4 16.09-18.67.54-3.41-.64-6.83-.9-10.28-.8-10.67 7.01-19.74 11.89-29.25 4.88-9.51 5.2-24.11-4.78-27.96-10.66-4.1-24.65 7.94-33 .14-6.17-5.76-1.52-16.62 5.56-21.2 2.36-1.53 4.86-2.98 6.39-5.34 7.14-11.03-9.05-17.18-9.92-20.3-3.5-12.51 24.87-18.27 11.26-23.46-9.23-3.52-20.84 12.49-28.91 28.2-7.91 15.39-24.3 27.15-37.56 32.29-1.78-6.02-4.48-12.87-9.37-16.12a222.602 222.602 0 0 0-18.72 41.16c4.85 4.43 10.77 8.23 12.31 14.45ZM584.06 150.88c-5.71.84-11.4-1.27-16.79-3.36-12.45-4.82-27.53-9.4-38.23-1.43-3.05 2.27-5.5 5.46-9.03 6.89-6.75 2.74-13.98-1.91-21.06-3.62-10.98-2.64-26.57 3.1-29.55 15.07-4.36 17.48 16.29 10.12 25.09 7.43 12.01-3.67 25.9-.3 34.89 8.46 1.52 1.48 2.95 3.18 3.46 5.24 1.22 4.91-3.11 9.4-7.43 12.05s-9.41 5.01-11.28 9.71c-1.68 4.22-.19 8.94.06 13.48.53 9.71-4.68 20.15-.1 28.73 7.89 14.77 35.25 7.74 42.81 22.69 3.45 6.82.76 15.1-2.79 21.86-3.56 6.76-8.08 13.49-8.3 21.13-.11 3.78.87 7.49 1.93 11.12 3.4 11.54 8.61 23.68 19.16 29.44 14.24 7.77 33.75 1.42 46.8 11.06 2.44 1.8 4.56 4.12 7.34 5.36 2.04.91 4.29 1.17 6.47 1.67 10.29 2.33 19.1 10.35 22.39 20.37 1.79 5.46 2.02 11.32 3.51 16.87 1.49 5.55 4.71 11.17 10.11 13.14 12.5-3.32 21.36-16.85 19.41-29.64-.85-5.59-3.49-11.12-2.37-16.66 1.26-6.2 6.78-10.43 10.86-15.27 5.13-6.09 8.24-13.84 8.75-21.79.3-4.71-.22-9.75 2.07-13.88 1.28-2.31 3.33-4.09 5.33-5.82 7.26-6.26 14.52-12.52 21.78-18.77 2-1.72 4.11-3.62 4.73-6.18.55-2.24-.15-4.57-.83-6.77-2.16-6.94-4.33-13.88-6.49-20.82-2.34-7.5-5.47-15.9-12.75-18.87-10.51-4.28-21.52 5.59-32.87 5.87-8.4.21-16.56-5.51-19.41-13.41-2.85-7.9-.31-17.4 5.99-22.96 3.3-2.91 7.6-4.96 9.64-8.87 3.85-7.38-2.55-15.8-8.59-21.54-6.03-5.74-12.76-13.69-9.53-21.36 0-.02.02-.03.02-.05-20.18-12.26-42.03-21.06-64.64-26.3-.54 4.94-5.48 8.97-10.59 9.72ZM644.42 540.16c1.64-10.25 8.5-18.77 15.11-26.77 2.28-2.76 4.82-5.68 8.31-6.49 2.64-.61 5.38.11 8.07.47 9.8 1.32 20.15-2.47 26.79-9.8 6.63-7.34 9.37-18.01 7.07-27.63-1.82-7.63-8.05-15.16-15.87-14.7-2.04.12-4.17.76-6.05-.03-2.39-1.01-3.42-3.94-5.66-5.24-5.23-3.05-10.06 4.2-14.62 8.19-6.23 5.45-15.48 5.05-23.73 4.35-4.19-.36-8.68-.83-11.9-3.54-1.96-1.65-3.23-3.96-4.78-6a25.99 25.99 0 0 0-10.65-8.27c-4.13-1.73-8.65-2.37-13.13-2.55-11.25-.47-22.92 1.97-31.97 8.66-18.57 13.74-33.28 71.91-4.37 83.01 2.55.98 5.47 1.51 7.27 3.56 1.6 1.81 1.92 4.39 2.17 6.79l1.41 13.46c.4 3.77.58 8.14-2.2 10.71-1.65 1.53-3.97 2.02-6.1 2.75-4.09 1.4-7.72 3.94-10.57 7.18 28.6-2.21 56.99-9.95 83.48-23.4 1.56-4.67 1.15-9.81 1.93-14.7ZM514.27 489.37c-5.88.99-13.3-.28-16.6 4.7-1.35 2.03-1.52 4.59-1.66 7.02-.25 4.6-.51 9.2-.76 13.81-.06 1.08-.12 2.17.17 3.21.25.92.77 1.75 1.32 2.54 5.49 7.82 15.5 13.36 24.88 11.16 2.75-.65 5.62-1.35 7.77-3.19s3.3-5.18 1.79-7.57c-1.1-1.74-3.39-2.74-3.79-4.76-.24-1.18.27-2.38.74-3.49 1.96-4.6 3.58-9.6 2.8-14.54-.78-4.94-4.63-9.71-9.62-10-2.38-.14-4.7.72-7.05 1.11Z" class="cls-2"/><path d="M535.32 312.92c2.33-2.93 3.41-10.86 5.6-13.53 2.44-2.97 3.43-7.27 1.92-10.8-1.51-3.54-5.76-5.86-9.41-4.66-1.48.48-3.29 1.4-4.38.29-5.41.99-9 7.55-6.92 12.64.55 1.35 1.43 2.58 1.83 3.98.52 1.83.2 3.78.36 5.68.16 1.89 1.05 4 2.88 4.52 3.27-.28 5.8 4.82 8.13 1.89ZM510.52 194.98c1.6-.24 2.47-1.99 4.56-2.9 2.09-.91 4.21.44 5.26-1.82 1.11-2.38-5.98-7.07-10.4-8.07-1.86-.42-3.97-.45-5.52.67-1.98 1.43-2.38 4.33-1.59 6.64.79 2.31 2.6 5.1 4.17 5.94 2.11.42 3.52-.46 3.52-.46ZM354.32 427.64c1.23-2.23 1.01-4.93.77-7.46-.49-5.08-.98-10.16-1.48-15.24-.52-5.35-1.39-11.36-5.72-14.54-2.59-1.9-5.99-2.41-8.58-4.32-4.68-3.45-5.23-10.07-5.92-15.85-.83-6.94-6.73-14.16-12.39-15.48-.51 29.3 4.75 58.76 16 86.55l13.4-9.8c1.49-1.09 3.03-2.24 3.92-3.85ZM434.52 384.02c-1.2 5.39-1.06 11.13-3.26 16.19-1.2 2.76-3.07 5.23-4 8.09-1.77 5.42-.27 12.21-4.27 16.28-7.98 8.12-25-.08-30.47 13.93-2.51 6.42 4.39 23.78 13.13 20.26 3.29-1.33 4.11-5.74 6.92-7.9 4.07-3.13 9.96-.31 15.03-1.08 4.7-.71 8.42-4.61 10.3-8.97 1.88-4.37 2.27-9.21 2.73-13.94 1.26-13.12 3.25-26.24 7.39-38.76.34-1.04.71-2.12.6-3.21-.16-1.64-1.32-2.98-2.18-4.38-1.53-2.49.49-6.15-1.86-8.39-2.35-2.25-8.84 6.5-10.05 11.89ZM464.65 309.15c-1.41.59-2.5 1.79-3.23 3.14-3.62 6.7 1.51 15.09-.29 22.48-2.97 12.19-17.89 21.44 4.25 25.19 1.32.23 2.71.34 3.99-.05 1.39-.41 2.55-1.37 3.63-2.33 3.95-3.5 7.57-7.54 9.6-12.41 2.02-4.87 2.26-10.69-.35-15.27-1.07-1.88-2.57-3.49-3.68-5.36-1.97-3.33-2.59-7.3-4.46-10.68s-5.9-6.22-9.46-4.71ZM387.09 221.21c-3.15-1.18-6.78-.26-9.6 1.58-2.82 1.84-4.98 4.5-7.1 7.12-1.35 1.67-2.72 3.39-3.36 5.43 0 0-1.72 3.72-.64 5.79 1.08 2.06 2.37 3.61 3.73 3.75 1.35.15 2.67-.43 3.87-1.08 7.48-4.07 12.97-11.62 14.53-20 .1-.51.17-1.06-.04-1.53-.25-.54-.82-.85-1.38-1.06Z" class="cls-2"/><path d="M520.79 577.94c2.14-8.57 1.37-18.46-.47-27.99-57.79 3.97-116.34-17.47-157.81-62.51 2.41 3.33 4.91 6.62 7.53 9.86 38.82 47.92 93.66 75.26 150.75 80.64ZM699.4 461.17c20.79-9.65 25.4-36.39 30.1-58.83.89-4.25 1.89-8.51 3.64-12.48 1.47-3.33 3.44-6.4 4.97-9.7 6.02-13.02 4.17-29.31-4.61-40.65-6.12-7.9-16.34-13.51-20.32-22.95-2.88-6.82.52-11.84-1-18.1-2.69-11.07-10.56-14.09-19.11-13.05 24.24 66.61 10.64 142.79-37.45 197.44 7.44-3.91 13.37-10.51 20.99-14.19 7.21-3.48 15.52-4.11 22.79-7.48ZM693.73 206.25c2.67 6.02 6.16 12.54 4.2 18.83-.74 2.36-2.24 4.61-1.97 7.07.57 5.36 7.92 6.23 13.3 5.88 7.11-.46 16 1.61 22.64 1.47a223.295 223.295 0 0 0-15.9-22.32 221.959 221.959 0 0 0-24.22-25.47c-1.42 4.45-.04 10.02 1.96 14.54Z" class="cls-4"/><path d="M729.38 302.41c2-1.72 4.11-3.62 4.73-6.18.55-2.24-.15-4.57-.83-6.77-2.16-6.94-4.33-13.88-6.49-20.82-2.34-7.5-5.47-15.9-12.75-18.87-10.51-4.28-21.52 5.59-32.87 5.87-.65.02-1.29-.07-1.93-.12a194.226 194.226 0 0 1 23.83 70.27c1.25-1.74 2.89-3.2 4.52-4.61 7.26-6.26 14.52-12.52 21.78-18.77ZM677.39 210.41c3.85-7.38-2.55-15.8-8.59-21.54-6.02-5.72-12.72-13.64-9.55-21.29-20.18-12.25-42.02-21.04-64.63-26.28-.62 4.88-5.5 8.84-10.56 9.58-5.71.84-11.4-1.27-16.79-3.36-12.45-4.82-27.53-9.4-38.23-1.43-3.05 2.27-5.5 5.46-9.03 6.89-6.75 2.74-13.98-1.91-21.06-3.62-9.69-2.33-22.97 1.89-28 11.14 69.17-13.53 143.12 10.43 190.35 68.74.06.07.11.14.16.21 1.11-3.9 3.24-7.5 6.28-10.19 3.3-2.91 7.6-4.96 9.64-8.87ZM577.87 557.61c.4 3.77.58 8.14-2.2 10.71-1.65 1.53-3.97 2.02-6.1 2.75-4.09 1.4-7.72 3.94-10.57 7.18 28.6-2.21 56.99-9.95 83.48-23.4 1.56-4.67 1.15-9.81 1.93-14.7 1.64-10.25 8.5-18.77 15.11-26.77 2.28-2.76 4.82-5.68 8.31-6.49 2.64-.61 5.38.11 8.07.47 9.8 1.32 20.15-2.47 26.79-9.8 6.63-7.34 9.37-18.01 7.07-27.63-1.82-7.63-8.05-15.16-15.87-14.7-2.04.12-4.17.76-6.05-.03-2.39-1.01-3.42-3.94-5.66-5.24-.92-.54-1.83-.74-2.73-.71-11.94 21.23-27.97 40.64-48.07 56.93-17.43 14.12-36.52 24.77-56.44 32.1 1.04 1.71 1.31 3.86 1.52 5.89l1.41 13.46Z" class="cls-6"/><path d="M385.37 162.57C277.23 250.18 260.14 408.33 347.2 515.8c87.07 107.47 245.32 123.57 353.46 35.95 108.14-87.61 125.23-245.76 38.17-353.23-87.07-107.47-245.32-123.57-353.46-35.95Zm313.54 387.02c-105.26 85.28-260.4 68.26-346.49-38.01-86.1-106.27-70.56-261.56 34.7-346.84 105.26-85.28 260.4-68.26 346.49 38.01 86.1 106.27 70.56 261.56-34.7 346.84Z" class="cls-1"/><g style="clip-path:url(#clippath)"><path d="M535.33 324.33C244.65 425.37 15.37 525.59 23.22 548.17c7.85 22.58 249.86-41.02 540.54-142.07 290.68-101.04 519.96-201.26 512.11-223.84-7.85-22.58-249.86 41.02-540.54 142.07Zm22.79 65.57C287.41 484 63.76 548.2 58.57 533.29c-5.18-14.91 210.07-103.27 480.78-197.37 270.71-94.1 494.36-158.3 499.55-143.39 5.18 14.91-210.07 103.27-480.78 197.37Z" style="fill:#ffeeae;stroke-width:0"/><path d="M541.6 342.37c-230 79.95-413.41 153.52-409.65 164.33 3.76 10.81 193.26-45.24 423.26-125.19 230-79.95 413.41-153.52 409.65-164.33-3.76-10.81-193.26 45.24-423.26 125.19Zm10.73 30.87c-205.64 71.48-374.28 123.88-376.66 117.03-2.38-6.85 162.4-70.35 368.04-141.83 205.64-71.48 374.28-123.88 376.66-117.03 2.38 6.85-162.4 70.35-368.04 141.83Z" style="fill:#d18080;opacity:.8;mix-blend-mode:screen;stroke-width:0"/></g><g style="mix-blend-mode:screen"><ellipse cx="540.46" cy="352.93" rx="216.75" ry="215.39" style="fill:#0097bf;stroke-width:0" transform="rotate(-9.43 540.23 352.78)"/></g></g></g></svg>