<svg xmlns="http://www.w3.org/2000/svg" viewBox="0 0 1017.42 1011.06"><defs><style>.cls-2,.cls-22,.cls-24,.cls-7{stroke-width:0}.cls-2{fill:#d4088e}.cls-7{fill:#b3ab44}.cls-22{fill:#aa06b0}.cls-24{fill:#ed31de}</style></defs><g style="isolation:isolate"><g id="_1" data-name="1"><ellipse cx="508.71" cy="505.53" rx="360.45" ry="358.19" style="fill:#f742eb;mix-blend-mode:soft-light;opacity:.3;stroke-width:0"/><ellipse cx="508.71" cy="505.53" class="cls-2" rx="317.46" ry="315.47"/><path d="M508.58 190.22c-5.7 0-11.37.17-16.99.46 146.87 9.58 263.02 130.93 263.02 279.3S628.47 749.96 472.87 749.96 200.68 633.81 191.71 487.22c-.36 6.11-.58 12.26-.58 18.47 0 174.23 142.13 315.47 317.46 315.47s317.46-141.24 317.46-315.47-142.13-315.47-317.46-315.47Z" style="fill:#870587;stroke-width:0"/><path d="M277.46 564.04c18.49-1.54 36.79-4.99 54.77-9.05l-1.35-3.47c13.11-5.12 26.75-6.49 40.56-5.95 17.78-4.32 35.94-8.5 54.03-11.1 14.1-2.03 29.86-1.69 45.09-1.37 33.15.7 67.43 1.43 91.4-20.95 32.48-30.33 57.74-43.99 78.03-54.96 35.49-19.2 55.04-29.77 62.89-101.66 5.18-47.49-28.26-98.23-63.6-137.55a319.21 319.21 0 0 0-25.59-10.2c37.28 37.36 79.11 90.37 78.06 139.41 3.74 4.71 5.97 10.82 5.41 15.69l-3.86-.44c.3-2.62-.48-5.79-1.97-8.76-.02.19-.02.39-.04.58-7.18 65.81-22.74 74.23-56.84 92.67-20.88 11.29-46.86 25.35-80.44 56.7-17.09 15.96-41.11 18.16-67.29 18.05l-19.82 10.51-1.82-3.43 13.51-7.17c-2.58-.04-5.17-.1-7.78-.15-15.71-.34-31.95-.68-47 1.48-22.22 3.2-44.29 8.63-65.64 13.88-26.62 6.55-54.15 13.32-81.67 15.61-26.25 2.18-56.95-.86-83.31-12.35.49 4.44 1.02 8.87 1.7 13.26 21.12 8.04 44.17 11.41 65.64 11.41 5.79 0 11.46-.24 16.94-.7Z" class="cls-24"/><path d="M353.01 550.08c-6.58.78-13.06 2.25-19.38 4.59 6.5-1.48 12.97-3.02 19.38-4.59ZM505.64 190.14c-1.7.02-3.39.09-5.09.13 3.24 1.29 6.45 2.64 9.61 4.07-1.47-1.44-2.98-2.84-4.52-4.2Z" class="cls-24"/><path d="M242.45 456.95c-5.45-2.9-12.18-2.77-18.15-2.67l-.07-3.89c6.1-.1 13.7-.25 20.05 3.12 2.17 1.16 4.11 2.9 5.65 4.94.56 0 1.09.05 1.65.05 4.88 0 9.83-.15 14.84-.44 16.59-.98 21.41-7.03 25.99-14.84 4.62-7.87 10.37-17.67 55.89-21 8.1-.59 17.59-1.11 27.65-1.65 33.32-1.8 74.78-4.05 101.34-11.15 8.78-2.35 16.51-.8 24.7.83 11.45 2.29 23.9 4.78 38.8-4.23.87-2.34 1.62-4.73 2.19-7.18l3.79.87c-.21.92-.48 1.81-.73 2.72 6.45-4.92 13.36-12.05 20.83-22.27 18.33-25.08 38.01-88.93 26.61-122.38-9.96-29.2-34.75-51.34-63.81-66.97-6.06-.39-12.15-.64-18.3-.69 2.93 2.78 5.71 5.7 8.33 8.78 29.35 14.98 53.72 36.17 62.75 62.64 9.29 27.24-6.2 86.04-24.98 111.74-23.07 31.57-36.37 28.9-53.18 25.54-8.71-1.75-18.59-3.72-30-.67-25.39 6.8-66.18 9-98.95 10.77-10.11.55-19.66 1.06-27.87 1.66-27.17 1.99-42.1 6.3-51.29 11.97.57.76 1.33 1.47 2.4 2.07l-1.9 3.39c-1.54-.86-2.77-1.97-3.71-3.26-4.95 3.78-7.95 8.05-10.6 12.56-3.18 5.42-4.93 8.41-16.63 9.1-24.44 1.45-47.24-.84-67.52-6.63-.81 3.78-1.5 7.6-2.17 11.42 15.01 4.19 31.24 6.57 48.4 7.09-.64-.51-1.3-.98-1.99-1.35Z" class="cls-24"/><path d="M297.32 331.8c15.8-.72 32.14-1.46 48.16-4.17 26.46-4.49 47.61-13.93 62.83-28.07 4-3.71 8.77-5.57 13.82-7.54 15.84-6.17 27.72-13.67 24.8-48.71-1.18-14.09-14.12-25.8-21.72-31.53-3.44-2.59-7.32-5.1-11.44-7.36-5.38 1.67-10.69 3.51-15.94 5.46 2.06.78 4.15 1.68 6.24 2.69l2.66-2.83c2.33 2.2 4.15 4.69 5.59 7.35 2 1.26 3.98 2.58 5.88 4.01 10.15 7.64 16.54 16.3 17.12 23.18 2.43 29.16-5.46 32.23-17.42 36.88-5.57 2.17-11.89 4.63-17.52 9.86-13.53 12.57-32.66 21.02-56.85 25.12-15.31 2.6-31.29 3.32-46.74 4.02-6.29.28-12.58.57-18.86.97-9.15.59-18.98 1.5-29 3.19-3.17 4.48-6.24 9.04-9.17 13.69 13.3-3.17 26.73-4.46 38.93-5.25 6.2-.4 12.42-.68 18.63-.96ZM319.71 693.2c13.74-2.45 25.15-7.32 35.74-12.74-2.32.53-4.64 1.15-6.94 1.92l-1.23-3.68c6.12-2.05 12.33-3.23 18.58-3.78.49-.27.98-.53 1.46-.8 13.1-7.19 25.48-13.98 41.41-17.45 95.23-20.75 102.09-6.2 106.2 2.5 2.76 5.85 5.94 10.86 13.87 12.21 2.79-1.62 5.52-3.34 8.16-5.19l2.22 3.19c-1.15.8-2.36 1.5-3.54 2.26 2.35-.14 4.96-.47 7.94-1.08 67.18-13.72 113.04-34.44 140.22-63.36 12.64-13.45 26.85-41.06 39.38-65.43 4.85-9.43 9.44-18.34 13.08-24.65L754 486.36c4.25-7.37 8.64-14.98 12.56-22.81 17.3-34.47 24.24-72.57 21.32-108.37-5.24-9.59-11-18.85-17.18-27.8 10.63 41 5.71 88.59-15.35 130.56-3.76 7.5-8.06 14.96-12.23 22.19l-17.72 30.74c-3.79 6.57-8.44 15.61-13.36 25.18l-1 1.94c6.45-5.03 12.32-10.77 17.13-17.48l3.16 2.27c-6.63 9.24-15.05 16.71-24.29 22.96-10.52 20.28-22.54 42.43-32.37 52.89-25.34 26.96-69.04 46.47-133.59 59.66-11.57 2.36-12.38.65-14.79-4.47-8.33-17.67-23.13-30.56-120.2-9.4-17.7 3.86-31.46 11.41-44.77 18.71-13.79 7.57-26.82 14.71-43.78 17.74-27.21 4.86-51.52 4.87-72.65.11 3.34 4.95 6.81 9.78 10.42 14.53 7.48 1 15.24 1.56 23.33 1.56 12.95 0 26.66-1.29 41.1-3.86Z" class="cls-24"/><path d="M507.25 797.44c55.6 0 112.82-12.68 185.43-62.37 38.79-26.54 41.4-40.64 40.86-57.66-.28-9-.53-16.78 11.86-30.63 13.62-15.22 26.89-28.29 39.72-40.92 12.13-11.94 23.73-23.37 34.29-35.4 1.73-8.23 3.08-16.6 4.15-25.06-13.21 17.97-29.32 33.9-47.23 51.53-10.05 9.89-20.37 20.08-30.96 31.36-.54 2.21-1.05 4.42-1.49 6.65l-3.81-.75c.01-.06.03-.11.04-.17-1.35 1.48-2.69 2.89-4.05 4.41-15.74 17.59-15.36 29.68-15.05 39.39.3 9.38.48 17.78-17.01 32.96 7.94-3.3 14.34-8.3 18.21-14.59l3.31 2.03c-5.89 9.59-16.5 16.29-29.74 19.19-3.04 2.31-6.37 4.72-10.18 7.33-104.81 71.71-176.84 63.44-260.24 53.86-5.67-.65-11.39-1.3-17.14-1.93-8.3 3.26-16.63 6.45-24.99 9.43l-1.31-3.66c5.99-2.13 11.97-4.38 17.94-6.67-19.67-2.07-40.01-3.73-61.63-4.15a317.82 317.82 0 0 0 23.38 13.48c21.62 1.32 42.19 3.65 62.31 5.96 28.5 3.27 55.71 6.4 83.32 6.4ZM525.38 213.05c10.45 16.36 10.36 47.19 10.29 67.6-.05 16.51.05 23.27 3.26 24.94 3.89 2.03 7.28.12 10.01-1.43 2.93-1.66 4.69-2.54 6.91-1.17 1.41.93 3.43 10.12.78 22.91-2.08 10.02-9.81 33.84-36.77 38.64-5.35.95-10.39 3.09-15.25 5.17-5.71 2.43-11.1 4.73-16.91 5.23-21.98 1.9-42.6 2.04-62.54 2.18-27.34.19-53.16.37-79.61 4.97-34.45 5.99-52.37 21.75-54.43 33.85-.58 3.39.09 6.43 1.83 8.82.93 1.29 2.17 2.4 3.71 3.26l1.9-3.39c-1.07-.6-1.83-1.31-2.4-2.07-1.43-1.91-1.51-4.18-1.2-5.97 1.54-9.01 16.46-24.62 51.27-30.68 26.13-4.55 51.79-4.73 78.97-4.92 20.02-.14 40.71-.29 62.85-2.2 6.43-.55 12.36-3.08 18.1-5.52 4.67-1.99 9.49-4.04 14.41-4.92 29.9-5.32 38.02-31.72 40.12-42.82 2.01-10.64 1.52-23.23-2.79-25.86-4.28-2.63-7.93-.56-10.86 1.1-2.65 1.5-4.38 2.36-6.15 1.46-1.37-1.52-1.34-12.18-1.31-21.58.07-22.1.16-52.38-10.9-69.7-2.7-4.23-5.73-8.24-8.98-12.06-2.62-3.07-5.4-6-8.33-8.78-.89 0-1.76-.07-2.65-.07-1.03 0-2.05.07-3.07.08 1.55 1.36 3.06 2.75 4.52 4.2 5.74 5.65 10.88 11.91 15.22 18.72ZM542.98 398.85c-.56 2.45-1.32 4.84-2.19 7.18-7.08 19.03-23.88 34.16-43.78 38.71-3.84.88-7.88 1.4-11.79 1.91-5.91.77-12.03 1.56-17.83 3.6-7.19 2.53-13.53 6.83-19.66 10.99-2.22 1.51-4.44 3.01-6.7 4.44-25.05 15.8-55.46 20.97-76.16 23.48a426.623 426.623 0 0 1-105.98-.38c-4.34-.56-12.39-2.94-11.77-7.98.2-1.61 1.32-3.1 2.52-4.67.9-1.18 1.82-2.4 2.5-3.83 2.18-4.63.81-9.84-2.22-13.84-1.54-2.03-3.48-3.78-5.65-4.94-6.34-3.38-13.94-3.23-20.05-3.12l.07 3.89c5.97-.1 12.7-.23 18.15 2.67.7.37 1.36.84 1.99 1.35 3.73 3 6.17 8.16 4.19 12.34-.5 1.06-1.27 2.07-2.08 3.14-1.38 1.83-2.95 3.89-3.28 6.55-.93 7.53 7.57 11.33 15.13 12.31 18.25 2.35 36.62 3.52 55 3.52 17.35 0 34.7-1.05 51.94-3.14 21.06-2.56 52.04-7.84 77.76-24.05 2.3-1.45 4.55-2.98 6.81-4.51 5.92-4.02 12.05-8.18 18.77-10.54 5.42-1.91 11.07-2.64 17.04-3.42 4-.52 8.13-1.06 12.15-1.98 22.85-5.22 41.85-23.56 48.15-46.08.25-.9.52-1.8.73-2.72l-3.79-.87ZM680.19 339.91c-7.74-.9-14.35 3.78-20.27 14.27-3.21 5.68-4.96 11.98-6.66 18.07-.43 1.53-.86 3.06-1.31 4.58-7.83 26.47-23.48 51.18-44.06 69.57-18.25 16.31-40.27 27.98-61.57 39.27l-67.73 35.92-13.51 7.17 1.82 3.43 19.82-10.51 61.43-32.57c21.5-11.4 43.74-23.19 62.34-39.81a154.367 154.367 0 0 0 45.2-71.37c.46-1.54.89-3.09 1.32-4.64 1.64-5.87 3.33-11.94 6.31-17.21 5.07-8.98 10.37-13 16.45-12.32 4.66.54 9.09 4.97 11.57 9.92 1.49 2.98 2.27 6.14 1.97 8.76l3.86.44c.56-4.87-1.68-10.98-5.41-15.69-3.07-3.86-7.14-6.79-11.55-7.29ZM362.07 286.69c13.74-4.06 33.39-11.24 45.24-26.72 8.86-11.56 12.23-29.55 5.01-42.88-1.44-2.66-3.27-5.15-5.59-7.35l-2.66 2.83c12.41 11.73 9.75 32.51.15 45.04-11.16 14.58-30.03 21.45-43.25 25.36-27.77 8.2-57.22 11.31-86.2 9.36-1.13 1.22-2.22 2.47-3.33 3.71 6.6.53 13.23.82 19.86.82 23.93 0 47.92-3.41 70.77-10.16ZM323.2 637.13c13.12-4.77 26.1-10.5 38.65-16.05 17.82-7.88 36.25-16.02 55.22-21.43 21.87-6.23 63.44-13.42 96.06 8.57.74.5 1.48 1.02 2.22 1.53 4.08 2.84 8.29 5.78 13.4 6.64 6.34 1.07 12.63-1.39 17.68-3.37l111.13-43.46c15.67-6.13 33.75-13.21 49.45-23.83 9.24-6.25 17.66-13.72 24.29-22.96l-3.16-2.27c-4.81 6.71-10.68 12.45-17.13 17.48-16.63 12.96-37.28 21.08-54.86 27.95l-111.13 43.46c-4.85 1.9-10.35 4.04-15.63 3.15-4.25-.72-7.93-3.28-11.82-5.99-.76-.53-1.51-1.05-2.27-1.57-33.93-22.87-76.77-15.51-99.29-9.09-19.23 5.48-37.79 13.68-55.73 21.61-12.49 5.52-25.41 11.23-38.41 15.95-26.67 9.69-68.39 16.58-100.85 5.45.76 1.61 1.5 3.23 2.29 4.83 11.26 3.36 23.43 4.79 35.64 4.79 23.42 0 46.95-5.14 64.25-11.43Z" class="cls-24"/><path d="M711.15 276.33c.68 14.67 2.52 29.92 11.26 42.06 2.29 3.17 4.99 6.03 7.61 8.79 3.61 3.81 7.02 7.41 9.4 11.76 4.77 8.71 4.73 19.41 4.7 28.85-.07 18.76-.14 40.02-8.03 58.35-10.96 25.45-35.03 42.35-58.75 57.48-30.77 19.62-67.68 41.71-108.2 56.72-42.12 15.61-82.34 21.34-119.57 17.02-10.64-1.23-21.62-3.33-32.23-5.36-15.19-2.9-30.65-5.84-45.9-6.44-13.82-.54-27.46.83-40.56 5.95l1.35 3.47.06.15c.45-.17.9-.31 1.35-.47 6.32-2.33 12.79-3.81 19.38-4.59 20.68-2.45 42.41 1.7 63.6 5.75 10.68 2.04 21.73 4.15 32.52 5.4 8.16.95 16.45 1.42 24.88 1.42 30.65 0 63-6.25 96.49-18.66 40.86-15.14 78-37.36 108.94-57.09 24.23-15.45 48.84-32.76 60.23-59.22 8.2-19.06 8.28-40.74 8.35-59.87.03-9.42.07-21.15-5.18-30.73-2.62-4.79-6.37-8.74-9.99-12.56-2.53-2.67-5.14-5.42-7.27-8.39-8.15-11.32-9.88-25.9-10.54-39.97-.09-1.93-.16-3.87-.24-5.81-.06-1.61-.12-3.22-.2-4.84-1.36-1.16-2.68-2.36-4.07-3.49.16 2.83.27 5.67.38 8.48.08 1.95.15 3.9.24 5.84ZM536.96 666.19c-2.65 1.84-5.38 3.57-8.16 5.19-19.13 11.09-41.3 16.81-63.43 16.13-14.52-.42-29.41-3.51-43.8-6.5-18.4-3.82-37.27-7.73-55.7-6.1-6.26.55-12.46 1.73-18.58 3.78l1.23 3.68c2.31-.77 4.62-1.38 6.94-1.92 21-4.81 42.59-.36 65.32 4.35 14.56 3.02 29.62 6.15 44.48 6.58 1.17.03 2.33.05 3.49.05 23.6 0 47.06-7 66.89-19.79 1.18-.76 2.39-1.46 3.54-2.26l-2.22-3.19ZM654.66 713.08c-4.01-.51-8.02-1.02-12.04-1.41-39.55-3.89-82.17 2.77-134.14 20.95-21.97 7.69-43.82 16.74-64.94 25.49-14.29 5.92-28.93 11.97-43.68 17.64-5.97 2.29-11.95 4.54-17.94 6.67l1.31 3.66c8.36-2.97 16.69-6.17 24.99-9.43 12.43-4.88 24.75-9.96 36.81-14.96 21.08-8.73 42.87-17.76 64.74-25.41 51.42-17.99 93.52-24.59 132.48-20.75 3.98.39 7.95.9 11.93 1.4 10.53 1.34 21.44 2.73 32.27 1.9 3.25-.25 6.34-.78 9.34-1.43 13.24-2.9 23.85-9.6 29.74-19.19l-3.31-2.03c-3.87 6.29-10.27 11.29-18.21 14.59-5.35 2.22-11.37 3.7-17.86 4.19-10.45.8-21.14-.56-31.48-1.88ZM795.1 478.96c-4.06 4.71-8.26 9.59-10.83 15.48-3.23 7.41-3.47 18.13 3.66 24.17 1.35 1.15 2.85 2.01 4.29 2.85 1.76 1.02 3.43 1.99 4.64 3.35 3.19 3.59 2.47 9.37.44 13.22-2.09 3.99-5.62 7.26-9.02 10.42l-1.4 1.31c-23.79 22.34-40.39 52.25-46.77 84.25-.01.06-.03.11-.04.17l3.81.75c.44-2.23.95-4.44 1.49-6.65 7.07-28.75 22.58-55.42 44.17-75.69l1.38-1.29c3.64-3.38 7.41-6.89 9.81-11.46 2.71-5.16 3.46-12.6-.98-17.6-1.62-1.83-3.64-3-5.6-4.13-1.36-.79-2.64-1.53-3.73-2.45-5.36-4.54-5.37-13.33-2.61-19.66 2.33-5.36 6.16-9.8 10.21-14.5 1.18-1.36 2.36-2.73 3.49-4.12 8.2-10 14.41-21.49 18.5-33.69-.52-2.6-1.12-5.17-1.71-7.75-3.75 14.18-10.45 27.58-19.79 38.98-1.12 1.36-2.27 2.7-3.43 4.04Z" class="cls-24"/><path d="M452.13 674.47c1.83.31 3.41.57 4.49.85 7.18 1.86 15.5 4.02 23.87 4.02 4.44 0 8.89-.61 13.19-2.19 5.27-1.93 9.9-6.58 8.54-11.74-1.6-6.05-9.48-6.84-12.07-7.1l-31.4-3.15c-11.25-1.15-24.44-1.47-26.61 6.34-.54 1.93-.28 3.79.74 5.4 3.05 4.8 12.43 6.39 19.27 7.55Zm-16.26-11.91c.56-2 3.38-4.08 12.71-4.08 2.68 0 5.9.17 9.76.57l31.41 3.15c5.17.52 8.1 1.94 8.7 4.22.76 2.88-2.59 5.8-6.12 7.1-10.43 3.83-21.9 1.38-34.74-1.95-1.16-.3-2.85-.59-4.81-.92-5.43-.92-14.51-2.46-16.64-5.81-.43-.68-.52-1.4-.28-2.27ZM674.67 358.52c-4.56.24-8.09 8.86-13 24.69-.63 2.03-1.12 3.64-1.45 4.49-.54 1.39-1.1 2.81-1.67 4.26-2.91 7.32-6.2 15.62-7.05 23.47-.54 5 .42 8.01 2.85 8.94.44.17.91.25 1.38.25 2.35 0 5.08-2.03 7.84-5.87 5.18-7.2 9.97-17.5 13.16-28.26 1.95-6.6 5.16-25.35 1.14-30.44-.82-1.04-1.91-1.54-3.2-1.52ZM673 389.37c-3.07 10.36-7.66 20.24-12.59 27.1-2.61 3.63-4.36 4.28-4.63 4.28-.23-.18-.79-1.47-.41-4.91.79-7.33 3.84-15.02 6.8-22.46.58-1.46 1.15-2.9 1.69-4.3.35-.9.87-2.6 1.54-4.73 4.32-13.93 7.49-21.31 9.43-21.94 1.9 1.74 1.28 16.51-1.81 26.95ZM366.12 259.16c6.12-2.33 9.35-6.27 8.66-10.54-.65-4.02-4.38-6.6-11.08-7.66-7.69-1.22-15.58-2.46-23.54-2.72-2.07 1.29-4.14 2.59-6.17 3.93 1.05-.04 2.1-.11 3.15-.11 8.7 0 17.45 1.39 25.95 2.73 4.86.77 7.5 2.27 7.85 4.45.44 2.73-3.07 5.09-6.21 6.28-17.34 6.6-37.49 5.07-52.42 2.25-1.35 1.05-2.71 2.08-4.04 3.16 8.05 1.7 17.92 3.14 28.27 3.14s20.08-1.3 29.57-4.92ZM529.59 351.78c2.08 0 4.33-.75 6.26-1.88 5.05-2.97 15.33-12.8 16.2-22.08.36-3.81-.95-7.13-3.78-9.6-2.55-2.24-5.19-3.05-7.84-2.4-6.88 1.68-11.24 12.92-14.13 20.36-.57 1.47-1.06 2.73-1.46 3.61-.79 1.74-2.9 6.37-.28 9.71 1.26 1.62 3.08 2.28 5.04 2.28Zm-1.22-10.38c.42-.94.94-2.26 1.55-3.82 2.28-5.87 6.53-16.79 11.44-17.99.27-.07.54-.1.82-.1 1.12 0 2.28.54 3.54 1.64 1.9 1.67 2.71 3.73 2.46 6.32-.65 6.91-8.9 15.92-14.3 19.1-1.84 1.09-5.04 2.13-6.27.56-1.04-1.33-.06-3.9.76-5.7ZM687.65 704.41c.99 0 2.03-.11 3.12-.33 4.68-.96 8.4-3.92 12.1-7.13 1.65-1.43 3.72-3.22 5.09-5.56 1.62-2.78 1.92-5.92.79-8.42-1.27-2.81-4.41-4.75-7.97-4.96-2.98-.17-5.76.75-8.34 1.77-3.47 1.37-7.42 3.2-10.39 6.45-3.78 4.16-4.84 9.85-2.56 13.85 1.61 2.83 4.5 4.34 8.15 4.34Zm-2.71-15.57c2.42-2.66 5.87-4.25 8.93-5.45 2.02-.79 4.16-1.52 6.22-1.52.16 0 .32 0 .47.01 1.75.1 3.87.97 4.65 2.68.72 1.59.16 3.55-.6 4.86-.97 1.66-2.45 3-4.28 4.58-3.31 2.86-6.58 5.49-10.34 6.26-3.42.71-5.93-.05-7.11-2.12-1.45-2.56-.61-6.39 2.06-9.32Z" class="cls-24"/><path d="M742.82 337.07c-2.62-4.79-6.37-8.74-9.99-12.56-2.53-2.67-5.14-5.42-7.27-8.39-8.15-11.32-9.88-25.9-10.54-39.97-.09-1.93-.16-3.87-.24-5.81l-.18-4.56c-1.36-1.16-2.68-2.37-4.07-3.5.15 2.74.26 5.49.36 8.21.08 1.95.15 3.9.24 5.84.68 14.67 2.52 29.92 11.26 42.06 2.29 3.17 4.99 6.03 7.61 8.79 3.61 3.81 7.02 7.41 9.4 11.76 4.77 8.71 4.73 19.41 4.7 28.85-.03 7.72-.09 15.87-.67 24.05 1 3.44 1.97 6.89 2.84 10.38 1.57-11.66 1.67-23.46 1.71-34.42.03-9.42.07-21.15-5.18-30.73ZM613.97 208.1c14.62 14.69 29.89 31.78 43.01 50.08a281.93 281.93 0 0 1 33.34 33.93c-12.08-26.43-31.09-51.84-50.73-73.75-8.36-3.77-16.89-7.2-25.62-10.26ZM200.96 543.18c-2.69-.98-5.33-2.04-7.94-3.18.48 4.45 1.03 8.88 1.7 13.27 3.4 1.3 6.85 2.46 10.33 3.52-1.47-4.49-2.84-9.02-4.09-13.61ZM305.69 695.27c-4.89-3.59-9.66-7.31-14.3-11.2-16.98 1.11-32.63.07-46.81-3.15 3.33 4.95 6.8 9.8 10.4 14.54 7.57 1.03 15.42 1.6 23.61 1.6 8.68 0 17.74-.63 27.1-1.79ZM252.61 644.52c-11.03-.47-21.87-2.22-31.84-5.68.76 1.61 1.49 3.24 2.28 4.84 10.41 3.14 21.6 4.6 32.89 4.81-1.11-1.33-2.24-2.63-3.32-3.98ZM787.9 355.67c-5.21-9.55-10.92-18.79-17.05-27.72 10.43 40.87 5.45 88.22-15.51 129.99-.31.62-.66 1.22-.98 1.84.12 3.39.25 6.78.25 10.2 0 5.43-.19 10.81-.5 16.16 4.2-7.3 8.55-14.83 12.43-22.58 17.22-34.32 24.18-72.23 21.36-107.89Z" class="cls-22"/><path d="M507.24 797.44c55.6 0 112.82-12.68 185.43-62.37 38.79-26.54 41.4-40.64 40.86-57.66-.28-9-.53-16.78 11.86-30.63 13.62-15.22 26.89-28.29 39.72-40.92 12.08-11.89 23.64-23.28 34.17-35.27 1.73-8.22 3.07-16.58 4.14-25.02-13.19 17.9-29.26 33.79-47.1 51.36-10.05 9.89-20.37 20.08-30.96 31.36 7.07-28.75 22.58-55.42 44.17-75.69l1.38-1.29c3.64-3.38 7.41-6.89 9.81-11.46 2.71-5.16 3.46-12.6-.98-17.6-1.62-1.83-3.64-3-5.6-4.13-1.36-.79-2.64-1.53-3.73-2.45-5.36-4.54-5.37-13.33-2.61-19.66 2.33-5.36 6.16-9.8 10.21-14.5 1.18-1.36 2.36-2.73 3.49-4.12 8.13-9.92 14.3-21.31 18.39-33.4-.52-2.59-1.12-5.16-1.7-7.73-3.77 14.06-10.43 27.36-19.7 38.67-1.12 1.36-2.27 2.7-3.43 4.04-4.06 4.71-8.26 9.59-10.83 15.48-3.23 7.41-3.47 18.13 3.66 24.17 1.35 1.15 2.85 2.01 4.29 2.85 1.76 1.02 3.43 1.99 4.64 3.35 3.19 3.59 2.47 9.37.44 13.22-2.09 3.99-5.62 7.26-9.02 10.42l-1.4 1.31c-23.79 22.34-40.39 52.25-46.77 84.25-1.35 1.48-2.69 2.89-4.05 4.41-15.74 17.59-15.36 29.68-15.05 39.39.3 9.38.48 17.78-17.01 32.96-5.35 2.22-11.37 3.7-17.86 4.19-10.45.8-21.14-.56-31.48-1.88-4.01-.51-8.02-1.02-12.04-1.41-8.44-.83-17.03-1.15-25.81-1.01-2.38 1.41-4.78 2.77-7.2 4.11 11.19-.52 22.03-.28 32.63.76 3.98.39 7.95.9 11.93 1.4 10.53 1.34 21.43 2.73 32.27 1.9 3.25-.25 6.34-.78 9.34-1.43-3.04 2.31-6.37 4.72-10.18 7.33-104.82 71.72-176.84 63.44-260.24 53.86-5.67-.65-11.4-1.3-17.15-1.93 12.43-4.88 24.75-9.96 36.82-14.96 9.44-3.91 19.04-7.87 28.72-11.75-.29 0-.58.02-.87.02-3.02 0-6.01-.12-9-.22-6.83 2.78-13.62 5.58-20.33 8.36-14.29 5.92-28.94 11.97-43.69 17.64-19.8-2.08-40.27-3.78-62.06-4.18a316.37 316.37 0 0 0 23.31 13.48c21.81 1.31 42.54 3.66 62.82 5.99 28.5 3.27 55.71 6.4 83.32 6.4ZM508.58 190.22c-2.65 0-5.3.04-7.93.11 1.23.49 2.45.98 3.67 1.49 13.32 1.47 26.36 3.88 39.05 7.13-4.32-2.8-8.76-5.46-13.33-7.93-7.1-.47-14.24-.8-21.46-.8Z" class="cls-22"/><path d="M687.64 704.41c.99 0 2.03-.11 3.12-.33 4.68-.96 8.4-3.92 12.1-7.13 1.65-1.43 3.72-3.22 5.09-5.56 1.62-2.78 1.92-5.92.79-8.42-1.27-2.81-4.41-4.75-7.97-4.96-2.97-.18-5.76.75-8.34 1.77-3.47 1.37-7.42 3.2-10.39 6.45-3.78 4.16-4.84 9.85-2.56 13.85 1.61 2.83 4.5 4.34 8.15 4.34Zm-2.71-15.57c2.42-2.66 5.87-4.25 8.93-5.45 2.02-.79 4.15-1.52 6.22-1.52.16 0 .32 0 .47.01 1.75.1 3.87.97 4.65 2.68.72 1.59.16 3.55-.6 4.86-.97 1.66-2.45 3-4.28 4.58-3.3 2.86-6.58 5.49-10.34 6.26-3.41.7-5.93-.05-7.11-2.12-1.45-2.56-.61-6.39 2.06-9.32Z" class="cls-22"/><path d="M508.71 148.39c-198.48 0-359.39 159.9-359.39 357.14s160.9 357.14 359.39 357.14S868.1 702.77 868.1 505.53 707.2 148.39 508.71 148.39Zm0 710.31c-193.2 0-349.81-158.12-349.81-353.17s156.61-353.17 349.81-353.17 349.81 158.12 349.81 353.17S701.9 858.7 508.71 858.7Z" class="cls-2"/><ellipse cx="508.73" cy="501.76" class="cls-7" rx="313.94" ry="319.7" style="mix-blend-mode:screen;opacity:.1" transform="rotate(-89.66 508.728 501.758)"/><g style="mix-blend-mode:color-dodge;opacity:.6"><ellipse cx="477.92" cy="475.57" rx="276.93" ry="278.78" style="fill:#090803;opacity:.05;stroke-width:0" transform="rotate(-89.66 477.914 475.566)"/><ellipse cx="475.94" cy="474.58" rx="272.89" ry="274.83" style="fill:#111006;opacity:.1;stroke-width:0" transform="rotate(-89.66 475.93 474.574)"/><ellipse cx="473.95" cy="473.58" rx="268.85" ry="270.88" style="fill:#1a180a;opacity:.14;stroke-width:0" transform="rotate(-89.66 473.946 473.582)"/><ellipse cx="471.97" cy="472.59" rx="264.82" ry="266.93" style="fill:#22210d;opacity:.19;stroke-width:0" transform="rotate(-89.66 471.963 472.59)"/><ellipse cx="469.98" cy="471.6" rx="260.78" ry="262.98" style="fill:#2b2910;opacity:.24;stroke-width:0" transform="rotate(-89.66 469.979 471.598)"/><ellipse cx="468" cy="470.6" rx="256.74" ry="259.04" style="stroke-width:0;fill:#333113;opacity:.29" transform="rotate(-89.66 467.995 470.606)"/><ellipse cx="466.01" cy="469.61" rx="252.71" ry="255.09" style="fill:#3c3917;opacity:.33;stroke-width:0" transform="rotate(-89.66 466.011 469.614)"/><ellipse cx="464.03" cy="468.62" rx="248.67" ry="251.14" style="fill:#44411a;opacity:.38;stroke-width:0" transform="rotate(-89.66 464.027 468.622)"/><ellipse cx="462.05" cy="467.63" rx="244.63" ry="247.19" style="fill:#4d491d;opacity:.43;stroke-width:0" transform="rotate(-89.66 462.043 467.63)"/><ellipse cx="460.06" cy="466.63" rx="240.6" ry="243.24" style="fill:#555120;opacity:.48;stroke-width:0" transform="rotate(-89.66 460.054 466.633)"/><ellipse cx="458.08" cy="465.64" rx="236.56" ry="239.29" style="fill:#5e5a24;opacity:.52;stroke-width:0" transform="rotate(-89.66 458.076 465.636)"/><ellipse cx="456.09" cy="464.65" rx="232.52" ry="235.34" style="fill:#666227;opacity:.57;stroke-width:0" transform="rotate(-89.66 456.092 464.643)"/><ellipse cx="454.11" cy="463.65" rx="228.48" ry="231.39" style="fill:#6f6a2a;opacity:.62;stroke-width:0" transform="rotate(-89.66 454.108 463.651)"/><ellipse cx="452.12" cy="462.66" rx="224.45" ry="227.44" style="fill:#77722d;opacity:.67;stroke-width:0" transform="rotate(-89.66 452.124 462.66)"/><ellipse cx="450.14" cy="461.67" rx="220.41" ry="223.49" style="fill:#807a31;opacity:.71;stroke-width:0" transform="rotate(-89.66 450.14 461.667)"/><ellipse cx="448.15" cy="460.67" rx="216.37" ry="219.54" style="fill:#888234;opacity:.76;stroke-width:0" transform="rotate(-89.66 448.156 460.675)"/><ellipse cx="446.17" cy="459.68" rx="212.34" ry="215.59" style="fill:#918a37;opacity:.81;stroke-width:0" transform="rotate(-89.66 446.173 459.683)"/><ellipse cx="444.19" cy="458.69" rx="208.3" ry="211.64" style="fill:#99933a;opacity:.86;stroke-width:0" transform="rotate(-89.66 444.184 458.686)"/><ellipse cx="442.2" cy="457.69" rx="204.26" ry="207.69" style="fill:#a29b3e;opacity:.9;stroke-width:0" transform="rotate(-89.66 442.2 457.694)"/><ellipse cx="440.22" cy="456.7" rx="200.23" ry="203.74" style="fill:#aaa341;opacity:.95;stroke-width:0" transform="rotate(-89.66 440.216 456.702)"/><ellipse cx="438.23" cy="455.71" class="cls-7" rx="196.19" ry="199.79" transform="rotate(-89.66 438.232 455.71)"/></g></g></g></svg>