<svg xmlns="http://www.w3.org/2000/svg" viewBox="0 0 1200 1100"><defs><style>.cls-1{fill:#f0c2a6}.cls-1,.cls-2,.cls-3,.cls-5,.cls-6{stroke-width:0}.cls-2{fill:#d49364}.cls-3{fill:#d4ad80}.cls-5{fill:#d49875}.cls-6{fill:#a87b49}</style></defs><g style="isolation:isolate"><g id="_1" data-name="1"><ellipse cx="613.87" cy="554.44" class="cls-5" rx="331.2" ry="329.13" transform="rotate(-9.91 614.032 554.568)"/><ellipse cx="613.87" cy="554.44" class="cls-5" rx="331.2" ry="329.13" transform="rotate(-9.91 614.032 554.568)"/><path d="M449.83 771.35c2.33-9.44 4.67-19.1 3.77-28.78-1.29-13.76-8.94-25.97-14.01-38.82-5.08-12.85-7.18-28.74 1.5-39.49 7.2-8.91 19.43-11.48 29.62-16.71 10.19-5.23 19.48-17.38 13.88-27.37-4.67-8.33-16.36-9.19-23.75-15.24-9.62-7.87-10.06-22.64-17.8-32.36-4.59-5.76-11.51-9.44-15.55-15.59-5.45-8.3-4.49-19.05-4.5-28.98-.04-26.7-13.28-57.32-39.51-62.28-7.77-1.47-15.76-.47-23.63.24-18.98 1.69-41.43 3.79-60.14-.93-1.45-.37-2.78-.77-4.05-1.19-13.53 46.53-16.93 96.74-8.03 147.62 15.8 90.38 67.31 165.61 137.63 213.91 12.78-13.66 19.91-35 24.59-54.03ZM427.72 343.62c-.59 13.42-1.14 27.17 2.94 39.97 4.65 14.61 13.71 17.68 24.02 26.29 10.57 8.84 13.73 15.37 17.68 29.34 4.17 14.72 12.87 28.68 26.08 36.39 13.21 7.71 31.24 7.94 43.09-1.72 6.28-5.12 10.53-12.55 17.3-17.01 10.23-6.73 24.14-5.39 34.58-11.8 11.3-6.94 16-21.32 26.66-29.2 17.5-12.95 42.82-3.74 63.57-10.33 11.96-3.8 21.57-12.6 30.76-21.14 16.35-15.21 34.15-34.23 30.94-56.33-2.61-17.96-18.31-30.7-32.85-41.56-16.19-12.09-35.75-24.86-55.1-19.06-12.03 3.61-22.83 14.22-35.13 11.68-15.1-3.13-19.97-23.44-33.72-30.42-18.69-9.49-41.79 10.19-61.46 2.97-5.85-2.15-10.57-6.43-15.65-10.08-29.02 9.41-56.05 22.57-80.62 38.85-.5 4.53-.71 9.12-.91 13.68-.72 16.5-1.45 33-2.17 49.51ZM829.75 566.35c-13.6 1.76-27.36 5.23-40.84 2.74-8.89-1.65-17.11-5.82-25.83-8.23-41.25-11.41-81.78 17.51-114.86 44.67-11.42 9.38-23.58 19.95-26.35 34.47-4.94 25.85 22.16 49.28 18.73 75.37-1.5 11.38-8.68 21.24-11.34 32.4-5.48 23 12.62 48.71 36.12 51.31 13.82 1.53 27.62-3.86 41.5-3.05 11.89.69 23.16 5.89 35.04 6.76 34.02 2.5 59.35-28.92 81.69-54.7 4.23-4.88 8.61-9.7 13.76-13.59 4.31-3.26 9.11-5.83 13.48-9.02 17.24-12.57 26.63-35.09 23.43-56.18-2.24-14.7-11.46-29.38-9.81-44.54 1.19-10.95 9.24-15.01 11.79-24.26 8.1-29.29-24.18-37.03-46.51-34.14ZM918.99 467.29c-.89 9.76-1.06 20.76-8.16 27.51-2.66 2.53-6.24 4.38-7.68 7.76-3.14 7.38 5.79 13.83 13.03 17.26 9.63 4.57 19.73 13.77 28.49 18.37a329.889 329.889 0 0 0-17.58-91.36c-5.16 4.73-7.42 13.06-8.1 20.46ZM630.04 584.43c-.62-4.6-2.82-8.81-4.66-13.07a89.398 89.398 0 0 1-7.27-36.39c.09-6.61.81-13.67-2.46-19.42-3.27-5.75-12.65-8.31-16.32-2.8-10.9 16.39-43.12 7.93-45.07 36.79-.38 5.58.95 11.16.78 16.75-.24 7.84-3.41 15.37-3.61 23.2-.32 12.6 7.07 24.2 15.95 33.15 4.58 4.62 9.93 8.93 16.33 10.08 13.09 2.37 24.35-8.79 32.97-18.93 7.19-8.45 14.83-18.37 13.35-29.37Z" class="cls-2"/><path d="M557.23 230.39c-5.86 1.02-11.65 2.21-17.38 3.53 152.66-16.53 293.83 87.31 320.49 239.79 27.78 158.92-79.34 310.4-239.26 338.35-153.92 26.9-300.6-70.47-336.15-219.51.73 6.35 1.6 12.71 2.72 19.08 31.3 179.06 202.74 298.69 382.93 267.19 180.19-31.49 300.88-202.18 269.59-381.24-31.3-179.06-202.74-298.69-382.93-267.19Z" style="fill:#ba8449;stroke-width:0"/><path d="M396.33 339.27c-4.05 14.89-25.85 22.19-24.76 37.58.51 7.18 6.17 12.8 9.05 19.39 5.55 12.72-1.24 29.37-14.13 34.6-25.95 10.54.86 42.82 10.8 56.98 9.74 13.87 23.89 29.52 40.32 25.35 19.75-5.02 23.24-34.05 41.53-43.03 11.19-5.49 26.75-2.82 34.43-12.63 3.16-4.05 4.11-9.35 6.26-14.01 6.67-14.45 23.39-20.59 36.63-29.42 13.23-8.84 24.2-27.59 14.01-39.81-10.88-13.05-37.78-7.52-43-23.69-3.85-11.94 10.04-22.71 22.56-23.54 4.17-.28 8.48-.35 12.17-2.32 17.27-9.18.67-28.88 1.79-33.57 4.5-18.8 45.55-5.75 31.61-22.35-9.46-11.26-36.13 1.16-58 15.74-21.42 14.29-51.23 17.71-72.19 14.81 2.05-9.12 3.49-19.97-.51-27.73a331.04 331.04 0 0 0-54.12 39.97c3.1 9.26 8.04 18.49 5.54 27.69ZM816.48 315.96c-8.03-3.04-13.9-9.9-19.4-16.51-12.7-15.27-28.99-32.14-48.67-29.52-5.61.75-11.1 3.12-16.72 2.43-10.75-1.32-16.79-12.6-24.76-19.94-12.36-11.37-36.78-15.19-49.32-1.8-18.32 19.57 13.86 24.94 27.24 27.81 18.27 3.92 33.88 18.35 39.24 36.24.91 3.03 1.53 6.27.71 9.32-1.97 7.26-10.85 9.97-18.37 10.29-7.52.31-15.85-.3-21.68 4.46-5.24 4.27-6.71 11.49-9.67 17.56-6.34 13.01-20.66 22.81-20.91 37.28-.43 24.92 40.22 35.57 39.24 60.47-.45 11.36-9.93 20.18-19.45 26.4-9.52 6.22-20.26 11.69-26.07 21.46-2.87 4.83-4.3 10.37-5.53 15.85-3.93 17.46-5.95 37.01 3.61 52.14 12.89 20.41 42.85 26.27 52.85 48.24 1.87 4.11 2.95 8.66 5.66 12.28 1.99 2.66 4.73 4.63 7.2 6.85 11.69 10.48 17.35 27.27 14.37 42.69-1.62 8.4-5.56 16.18-7.64 24.47-2.08 8.3-1.96 17.93 3.64 24.4 18.65 4.73 39.96-6.46 46.68-24.49 2.93-7.88 3.5-16.98 8.98-23.37 6.13-7.15 16.36-8.64 25.17-11.99 11.07-4.21 20.73-12.04 27.13-21.99 3.8-5.91 6.76-12.83 12.73-16.55 3.34-2.08 7.29-2.91 11.14-3.71 13.97-2.88 27.93-5.77 41.9-8.65 3.85-.79 7.95-1.73 10.62-4.61 2.33-2.51 3.12-6.05 3.82-9.4l6.63-31.77c2.39-11.45 4.4-24.63-2.92-33.75-10.57-13.17-32.02-8.3-46.98-16.15-11.07-5.8-17.54-19.14-15.53-31.47 2.01-12.33 12.19-22.84 24.39-25.52 6.4-1.4 13.48-.95 18.95-4.55 10.35-6.81 8.11-22.39 4.41-34.21-3.69-11.83-6.69-27.03 3.07-34.66.02-.02.04-.03.07-.05-17.37-30.54-39.41-57.79-65.01-80.97-4.28 6.04-13.62 7.7-20.8 4.98ZM613.29 865.71c9.54-12.14 24.63-18.26 39.01-23.87 4.96-1.94 10.37-3.9 15.49-2.43 3.88 1.12 6.92 4.03 10.16 6.45 11.79 8.81 27.98 11.37 41.92 6.64 13.93-4.74 25.21-16.64 29.19-30.81 3.15-11.23.5-25.53-10-30.59-2.73-1.32-5.97-2.03-7.84-4.42-2.38-3.04-1.6-7.59-3.57-10.92-4.59-7.76-16.12-1.82-24.94.06-12.04 2.57-23.78-4.63-34-11.52-5.19-3.5-10.68-7.36-12.91-13.21-1.36-3.57-1.34-7.48-1.87-11.26-.94-6.7-3.68-13.13-7.86-18.45-4.12-5.24-9.54-9.34-15.23-12.82-14.28-8.75-31.22-14.03-47.83-11.87-34.09 4.43-95.3 69.41-65.75 104.76 2.61 3.12 6.01 5.91 6.88 9.88.76 3.51-.68 7.09-2.09 10.4-2.63 6.17-5.27 12.35-7.9 18.52-2.21 5.18-5.14 11-10.61 12.33-3.25.79-6.62-.24-9.91-.84-6.32-1.14-12.89-.46-18.93 1.69a330.588 330.588 0 0 0 125.46 29.98c5.41-4.93 8.59-11.92 13.14-17.71ZM480.84 705.51c-8.37-2.96-17.09-9.98-24.98-5.91-3.22 1.66-5.3 4.87-7.23 7.93l-10.98 17.4c-.86 1.36-1.72 2.74-2.1 4.3-.34 1.38-.27 2.83-.12 4.25 1.49 14.14 10.48 28.59 24.28 32.51 4.05 1.15 8.28 2.31 12.41 1.48 4.13-.83 8.04-4.34 7.81-8.54-.17-3.06-2.42-6.02-1.49-8.93.55-1.71 2.07-2.89 3.49-3.99 5.88-4.56 11.6-9.89 14.16-16.88 2.56-6.99 1.01-15.97-5.27-19.96-3-1.9-6.62-2.47-9.97-3.65Z" class="cls-1"/><path d="M635.87 491.35c5.15-2.13 12.28-11.65 17.06-13.54 5.32-2.1 9.71-6.97 10.31-12.66.6-5.69-3.25-11.78-8.87-12.87-2.27-.44-5.28-.56-5.9-2.78-7.75-2.63-17.16 3.3-18.13 11.42-.26 2.16 0 4.38-.5 6.5-.64 2.75-2.47 5.06-3.64 7.64s-1.53 5.95.47 7.95c4.45 2 4.05 10.46 9.2 8.33ZM688.96 320.08c2.25.84 4.65-.79 8.02-.47 3.37.33 5.15 3.62 8.16 1.44 3.16-2.29-2.66-13.51-7.68-18.02-2.12-1.9-4.83-3.46-7.66-3.13-3.6.43-6.23 3.91-6.87 7.48-.64 3.57-.31 8.5 1.13 10.74 2.43 2.07 4.9 1.95 4.9 1.95ZM317.56 509.53c3.2-2.01 4.89-5.68 6.4-9.15 3.04-6.96 6.07-13.92 9.11-20.88 3.2-7.33 6.41-15.77 3.08-23.04-1.99-4.34-6.05-7.48-8.03-11.82-3.59-7.87.49-16.88 3.77-24.89 3.94-9.63 1.49-23.27-4.9-29.09-21.87 37.72-36.33 79.83-41.82 124.09 8.17-1.02 16.34-2.03 24.51-3.05 2.73-.34 5.56-.71 7.89-2.17ZM453.39 510.86c-5.46 6.14-9.43 13.7-15.96 18.69-3.56 2.72-7.77 4.58-11.06 7.62-6.23 5.77-9.18 15.67-17.33 18.07-16.25 4.78-32.44-18.19-49.69-3.94-7.91 6.53-11.51 34.09 2.41 35.84 5.24.66 9.49-4.49 14.72-5.26 7.55-1.12 13.17 6.8 20.32 9.47 6.63 2.47 14.27.1 19.88-4.21 5.61-4.31 9.61-10.33 13.63-16.15 11.13-16.14 23.21-31.77 37.65-45.04 1.2-1.11 2.45-2.24 3.11-3.74.98-2.25.44-4.82.33-7.27-.19-4.34 5.09-7.64 3.66-12.26-1.43-4.62-16.2 2.05-21.66 8.18ZM546.72 435.32c-2.26-.25-4.55.52-6.47 1.74-9.54 6.09-8.95 20.71-16.64 29.01-12.68 13.69-38.76 14.92-12.71 35.82 1.56 1.25 3.28 2.39 5.23 2.83 2.11.47 4.3.07 6.4-.4 7.66-1.69 15.3-4.32 21.45-9.18 6.16-4.87 10.67-12.26 10.6-20.11-.03-3.23-.82-6.4-.9-9.63-.15-5.75 1.92-11.36 1.93-17.11.01-5.75-3.17-12.35-8.89-12.97ZM509.52 264.88c-3.24-3.81-8.63-5.25-13.62-4.9-5 .35-9.74 2.25-14.38 4.12-2.96 1.19-5.99 2.44-8.29 4.64 0 0-4.93 3.59-5.02 7.06-.08 3.47.47 6.41 2.13 7.58 1.65 1.17 3.79 1.37 5.81 1.39 12.67.12 25.27-5.73 33.35-15.48.49-.6.99-1.25 1.05-2.03.07-.88-.45-1.7-1.03-2.38Z" class="cls-1"/><path d="M425.24 825.37c8.98-9.6 15.13-23 19.65-36.72-78-36.65-138.6-106.89-159.93-195.46.72 6.08 1.6 12.17 2.66 18.27 15.8 90.38 67.31 165.61 137.63 213.91ZM741.92 802.79c34.02 2.5 59.35-28.92 81.69-54.7 4.23-4.88 8.61-9.7 13.76-13.59 4.31-3.26 9.11-5.83 13.48-9.02 17.24-12.57 26.63-35.09 23.43-56.18-2.24-14.7-11.46-29.38-9.81-44.54 1.19-10.95 9.24-15.01 11.79-24.26 4.52-16.34-3.53-25.97-15.41-30.79-16.68 104.13-89.48 193.33-191.54 229.59 12.5.3 24.99-3.99 37.56-3.26 11.89.69 23.16 5.89 35.04 6.76ZM918.99 467.29c-.89 9.76-1.06 20.76-8.16 27.51-2.66 2.53-6.24 4.38-7.68 7.76-3.14 7.38 5.79 13.83 13.03 17.26 9.58 4.55 19.63 13.67 28.36 18.29-.67-13.42-2.15-26.94-4.52-40.52a328.738 328.738 0 0 0-13.06-50.63c-5.07 4.76-7.3 12.99-7.97 20.32Z" class="cls-6"/><path d="M895.76 618.1c3.85-.79 7.95-1.73 10.62-4.61 2.33-2.51 3.12-6.05 3.82-9.4l6.63-31.77c2.39-11.45 4.4-24.63-2.92-33.75-10.57-13.17-32.02-8.3-46.98-16.15-.85-.45-1.63-1.02-2.42-1.55.42 37.86-6.56 74.61-19.85 108.59 2.89-1.35 6.07-2.06 9.21-2.71 13.97-2.88 27.93-5.77 41.9-8.65ZM894.74 460.87c10.35-6.81 8.11-22.39 4.41-34.21-3.68-11.79-6.67-26.93 2.98-34.59-17.37-30.53-39.41-57.76-65-80.93-4.33 5.89-13.54 7.51-20.66 4.81-8.03-3.04-13.9-9.9-19.4-16.51-12.7-15.27-28.99-32.14-48.67-29.52-5.61.75-11.1 3.12-16.72 2.43-10.75-1.32-16.79-12.6-24.76-19.94-10.92-10.04-31.23-14.17-44.47-5.78 99.71 32.46 178.51 117.11 197.73 227.09l.06.39c4.26-4.26 9.65-7.41 15.54-8.7 6.4-1.4 13.48-.95 18.95-4.55ZM514.15 840.25c-2.21 5.18-5.14 11-10.61 12.33-3.25.79-6.62-.24-9.91-.84-6.32-1.14-12.89-.46-18.93 1.69a330.588 330.588 0 0 0 125.46 29.98c5.41-4.93 8.59-11.92 13.14-17.71 9.54-12.14 24.63-18.26 39.01-23.87 4.96-1.94 10.37-3.9 15.49-2.43 3.88 1.12 6.92 4.03 10.16 6.45 11.79 8.81 27.98 11.37 41.92 6.64 13.93-4.74 25.21-16.64 29.19-30.81 3.15-11.23.5-25.53-10-30.59-2.73-1.32-5.97-2.03-7.84-4.42-2.38-3.04-1.6-7.59-3.57-10.92-.81-1.37-1.84-2.29-3.03-2.9-30.88 18.96-65.77 32.6-103.68 39.23-32.87 5.75-65.4 5.78-96.6.9.11 2.98-1.09 5.96-2.28 8.76-2.63 6.17-5.27 12.35-7.9 18.52Z" class="cls-3"/><g style="mix-blend-mode:screen"><ellipse cx="613.6" cy="547.09" rx="320.47" ry="322.49" style="fill:#bf5200;stroke-width:0" transform="rotate(-70.33 613.607 547.09)"/></g></g></g></svg>