<svg xmlns="http://www.w3.org/2000/svg" viewBox="0 0 1079.08 1072.34"><defs><style>.cls-12,.cls-16,.cls-17{stroke-width:0}.cls-12{fill:#78b5c9}.cls-16{fill:#745dff}.cls-17{fill:#9ce8ff}</style></defs><g style="isolation:isolate"><g id="_1" data-name="1"><ellipse cx="539.54" cy="536.17" rx="336.7" ry="334.59" style="fill:#4dbeed;stroke-width:0"/><path d="M539.4 201.75c-6.05 0-12.05.18-18.02.49 155.77 10.17 278.96 138.86 278.96 296.23S666.55 795.42 501.52 795.42s-288.68-123.18-298.2-278.66c-.38 6.49-.62 13.01-.62 19.59 0 184.79 150.74 334.59 336.7 334.59s336.7-149.8 336.7-334.59-150.74-334.59-336.7-334.59Z" style="fill:#586ba0;stroke-width:0"/><path d="M294.27 598.22c19.61-1.63 39.02-5.3 58.09-9.6l-1.43-3.68c13.9-5.43 28.37-6.88 43.02-6.31 18.86-4.59 38.11-9.01 57.3-11.77 14.95-2.15 31.66-1.8 47.83-1.45 35.16.75 71.52 1.52 96.94-22.21 34.45-32.17 61.24-46.65 82.76-58.29 37.64-20.36 58.38-31.58 66.7-107.82 5.5-50.37-29.98-104.18-67.46-145.88-8.85-3.98-17.9-7.6-27.14-10.81 39.54 39.62 83.91 95.85 82.79 147.86 3.96 4.99 6.33 11.47 5.74 16.64l-4.1-.47c.32-2.78-.51-6.14-2.09-9.29-.02.2-.02.41-.04.61-7.61 69.8-24.12 78.73-60.29 98.29-22.14 11.98-49.7 26.88-85.31 60.13-18.13 16.92-43.6 19.26-71.37 19.15l-21.02 11.15-1.93-3.64 14.33-7.6c-2.74-.05-5.48-.1-8.25-.16-16.66-.36-33.89-.72-49.85 1.57-23.57 3.39-46.98 9.15-69.61 14.72-28.24 6.95-57.43 14.13-86.62 16.56-27.84 2.31-60.4-.91-88.36-13.1.52 4.71 1.09 9.41 1.8 14.06 22.4 8.52 46.85 12.1 69.62 12.1 6.14 0 12.15-.26 17.97-.74Z" class="cls-17"/><path d="M374.41 583.42c-6.98.83-13.85 2.39-20.55 4.87 6.9-1.57 13.75-3.2 20.55-4.87ZM536.28 201.66c-1.81.02-3.6.09-5.4.14 3.44 1.37 6.84 2.8 10.19 4.32-1.56-1.53-3.16-3.01-4.8-4.45Z" class="cls-17"/><path d="M257.14 484.64c-5.78-3.08-12.92-2.94-19.25-2.83l-.07-4.12c6.47-.11 14.53-.27 21.26 3.31 2.3 1.23 4.36 3.08 5.99 5.24.59 0 1.16.05 1.75.05 5.18 0 10.43-.16 15.74-.47 17.59-1.04 22.71-7.46 27.57-15.74 4.9-8.35 11-18.74 59.28-22.27 8.59-.63 18.66-1.17 29.33-1.75 35.33-1.91 79.31-4.29 107.48-11.83 9.32-2.5 17.51-.85 26.2.89 12.14 2.43 25.35 5.07 41.16-4.49.92-2.48 1.72-5.02 2.32-7.61l4.02.93c-.22.97-.51 1.92-.78 2.88 6.84-5.22 14.17-12.78 22.09-23.62 19.44-26.6 40.32-94.32 28.22-129.8-10.56-30.97-36.86-54.45-67.68-71.03-6.43-.42-12.89-.68-19.41-.73 3.11 2.94 6.05 6.05 8.83 9.31 31.13 15.89 56.98 38.36 66.56 66.44 9.85 28.89-6.58 91.26-26.5 118.52-24.47 33.48-38.57 30.65-56.4 27.09-9.24-1.85-19.71-3.95-31.82-.71-26.92 7.21-70.19 9.55-104.95 11.43-10.73.58-20.85 1.13-29.56 1.76-28.82 2.11-44.65 6.69-54.4 12.69.6.81 1.41 1.56 2.54 2.2l-2.01 3.6c-1.64-.91-2.94-2.09-3.93-3.46-5.25 4.01-8.43 8.53-11.24 13.32-3.37 5.75-5.23 8.92-17.63 9.65-25.93 1.53-50.11-.89-71.62-7.03-.85 4.01-1.59 8.06-2.3 12.11 15.92 4.45 33.13 6.97 51.34 7.52-.67-.54-1.38-1.04-2.11-1.43Z" class="cls-17"/><path d="M315.34 351.91c16.76-.76 34.09-1.55 51.08-4.42 28.07-4.76 50.49-14.77 66.64-29.77 4.24-3.94 9.3-5.91 14.66-7.99 16.8-6.54 29.4-14.5 26.31-51.67-1.25-14.94-14.97-27.37-23.04-33.44-3.65-2.75-7.76-5.41-12.13-7.81-5.71 1.77-11.34 3.72-16.91 5.79 2.19.83 4.4 1.78 6.62 2.85l2.83-3c2.47 2.33 4.41 4.98 5.93 7.8 2.13 1.33 4.22 2.74 6.23 4.25 10.76 8.1 17.55 17.29 18.15 24.59 2.58 30.92-5.8 34.18-18.47 39.12-5.91 2.3-12.61 4.91-18.59 10.45-14.35 13.33-34.64 22.29-60.3 26.64-16.24 2.75-33.19 3.52-49.57 4.26-6.67.3-13.34.61-20 1.03-9.7.62-20.13 1.59-30.76 3.38-3.36 4.75-6.61 9.59-9.73 14.52 14.11-3.36 28.35-4.73 41.29-5.56 6.58-.42 13.17-.72 19.76-1.02ZM339.09 735.21c14.58-2.6 26.67-7.76 37.91-13.51-2.46.56-4.92 1.21-7.36 2.03l-1.3-3.91c6.49-2.17 13.07-3.43 19.71-4.01.52-.28 1.04-.56 1.55-.85 13.9-7.62 27.02-14.82 43.92-18.51 101-22.01 108.27-6.57 112.63 2.66 2.93 6.21 6.31 11.52 14.71 12.95 2.96-1.72 5.85-3.55 8.66-5.5l2.35 3.38c-1.22.85-2.51 1.6-3.76 2.4 2.49-.15 5.26-.5 8.42-1.15 71.25-14.55 119.89-36.53 148.72-67.2 13.4-14.26 28.47-43.55 41.77-69.39 5.15-10 10.01-19.45 13.87-26.15l18.81-32.62c4.5-7.81 9.16-15.89 13.32-24.19 18.35-36.56 25.71-76.97 22.61-114.94-5.56-10.17-11.67-19.99-18.22-29.49 11.27 43.48 6.06 93.95-16.28 138.47-3.99 7.95-8.55 15.86-12.97 23.53l-18.8 32.6c-4.02 6.97-8.95 16.55-14.17 26.71l-1.06 2.06c6.84-5.33 13.06-11.42 18.17-18.54l3.35 2.4c-7.03 9.8-15.96 17.72-25.76 24.35-11.16 21.51-23.9 45-34.33 56.1-26.87 28.59-73.22 49.29-141.69 63.27-12.27 2.51-13.13.68-15.69-4.74-8.84-18.74-24.54-32.41-127.49-9.97-18.77 4.09-33.37 12.1-47.48 19.84-14.62 8.02-28.44 15.6-46.44 18.81-28.86 5.15-54.65 5.17-77.05.12 3.54 5.25 7.23 10.38 11.05 15.41a186.41 186.41 0 0 0 24.74 1.65c13.74 0 28.28-1.36 43.59-4.09Z" class="cls-17"/><path d="M537.99 845.77c58.97 0 119.66-13.45 196.67-66.15 41.14-28.15 43.91-43.1 43.34-61.16-.3-9.55-.56-17.8 12.58-32.49 14.44-16.14 28.52-30 42.13-43.4 12.86-12.66 25.17-24.78 36.36-37.55 1.84-8.73 3.26-17.61 4.4-26.57-14.01 19.06-31.1 35.96-50.09 54.65-10.66 10.49-21.6 21.29-32.83 33.26-.58 2.34-1.11 4.69-1.58 7.05l-4.04-.8c.01-.06.03-.12.04-.18-1.44 1.57-2.85 3.06-4.3 4.67-16.69 18.66-16.29 31.48-15.96 41.77.32 9.94.51 18.86-18.04 34.96 8.42-3.5 15.21-8.8 19.31-15.47l3.51 2.16c-6.25 10.17-17.49 17.27-31.54 20.35-3.23 2.45-6.75 5.01-10.8 7.77-111.16 76.06-187.56 67.28-276.02 57.12-6.02-.69-12.08-1.38-18.18-2.05-8.8 3.46-17.64 6.84-26.5 10l-1.38-3.88c6.35-2.26 12.7-4.64 19.03-7.08-20.86-2.19-42.44-3.96-65.37-4.4 8.04 5.1 16.31 9.88 24.8 14.3 22.93 1.4 44.74 3.87 66.09 6.32 30.23 3.47 59.09 6.79 88.37 6.79ZM557.22 225.96c11.09 17.35 10.98 50.05 10.92 71.69-.06 17.51.06 24.68 3.45 26.46 4.12 2.15 7.72.12 10.61-1.52 3.11-1.76 4.97-2.69 7.33-1.24 1.5.99 3.64 10.73.83 24.3-2.2 10.63-10.4 35.9-39 40.98-5.68 1.01-11.01 3.28-16.17 5.48-6.05 2.58-11.77 5.01-17.93 5.55-23.31 2.01-45.18 2.16-66.33 2.31-28.99.2-56.38.4-84.43 5.27-36.54 6.36-55.54 23.07-57.73 35.9-.61 3.6.1 6.82 1.94 9.36.99 1.37 2.3 2.55 3.93 3.46l2.01-3.6c-1.13-.63-1.94-1.39-2.54-2.2-1.52-2.03-1.6-4.43-1.27-6.33 1.63-9.56 17.45-26.11 54.37-32.54 27.72-4.82 54.93-5.01 83.75-5.21 21.23-.15 43.18-.3 66.66-2.33 6.82-.59 13.11-3.27 19.19-5.86 4.95-2.11 10.07-4.29 15.28-5.22 31.72-5.64 40.32-33.64 42.55-45.42 2.13-11.29 1.61-24.63-2.95-27.43-4.54-2.79-8.41-.59-11.52 1.17-2.81 1.6-4.65 2.51-6.52 1.55-1.45-1.61-1.42-12.91-1.38-22.89.07-23.44.17-55.55-11.56-73.93-2.87-4.49-6.08-8.74-9.52-12.79-2.78-3.26-5.72-6.37-8.83-9.31-.94 0-1.87-.07-2.81-.07-1.09 0-2.17.07-3.26.08 1.64 1.44 3.24 2.92 4.8 4.45 6.09 5.99 11.53 12.63 16.14 19.85ZM575.89 423.02c-.6 2.6-1.39 5.13-2.32 7.61-7.51 20.18-25.33 36.23-46.43 41.05-4.08.93-8.36 1.49-12.5 2.03-6.27.82-12.76 1.66-18.92 3.82-7.63 2.68-14.35 7.25-20.85 11.66-2.35 1.6-4.71 3.2-7.1 4.71-26.57 16.75-58.82 22.24-80.77 24.9-37.29 4.54-75.12 4.4-112.4-.4-4.6-.59-13.14-3.12-12.48-8.46.21-1.71 1.4-3.29 2.67-4.95.95-1.25 1.93-2.55 2.65-4.06 2.31-4.91.86-10.43-2.36-14.68-1.63-2.16-3.69-4.01-5.99-5.24-6.73-3.58-14.79-3.42-21.26-3.31l.07 4.12c6.33-.11 13.47-.25 19.25 2.83.74.39 1.44.89 2.11 1.43 3.96 3.19 6.54 8.65 4.45 13.09-.53 1.13-1.34 2.2-2.21 3.33-1.47 1.94-3.13 4.13-3.48 6.94-.98 7.98 8.03 12.02 16.05 13.05 19.35 2.49 38.84 3.74 58.34 3.73 18.4 0 36.81-1.11 55.09-3.33 22.34-2.72 55.2-8.31 82.47-25.51 2.43-1.53 4.83-3.16 7.22-4.78 6.28-4.27 12.78-8.68 19.9-11.18 5.75-2.02 11.74-2.8 18.08-3.62 4.24-.55 8.62-1.12 12.89-2.1 24.23-5.54 44.39-24.99 51.07-48.87.27-.96.56-1.91.78-2.88l-4.02-.93ZM721.42 360.52c-8.21-.96-15.22 4.01-21.5 15.14-3.4 6.02-5.26 12.71-7.07 19.17-.45 1.63-.91 3.25-1.38 4.86-8.3 28.08-24.9 54.28-46.73 73.79-19.36 17.3-42.72 29.68-65.3 41.65l-71.84 38.09-14.33 7.6 1.93 3.64 21.02-11.15 65.15-34.55c22.81-12.09 46.39-24.59 66.12-42.22a163.69 163.69 0 0 0 47.94-75.7c.48-1.63.94-3.28 1.4-4.92 1.74-6.23 3.53-12.66 6.69-18.25 5.37-9.52 11-13.78 17.45-13.07 4.95.57 9.65 5.27 12.27 10.52 1.58 3.16 2.4 6.51 2.09 9.29l4.1.47c.59-5.17-1.78-11.65-5.74-16.64-3.25-4.1-7.57-7.2-12.24-7.73ZM384.02 304.06c14.58-4.3 35.41-11.92 47.98-28.34 9.39-12.26 12.97-31.34 5.32-45.48-1.53-2.82-3.46-5.47-5.93-7.8l-2.83 3c13.17 12.44 10.34 34.48.16 47.77-11.84 15.46-31.85 22.75-45.87 26.89-29.46 8.69-60.69 12-91.42 9.93-1.2 1.29-2.36 2.62-3.53 3.93 7 .56 14.03.87 21.07.87 25.38 0 50.82-3.62 75.06-10.78ZM342.79 675.74c13.92-5.06 27.68-11.14 41-17.02 18.9-8.35 38.45-16.99 58.57-22.73 23.19-6.61 67.28-14.23 101.88 9.09.78.53 1.57 1.08 2.35 1.63 4.32 3.01 8.79 6.13 14.21 7.04 6.72 1.13 13.39-1.47 18.75-3.57l117.87-46.09c16.62-6.5 35.79-14.01 52.45-25.27 9.8-6.63 18.73-14.55 25.76-24.35l-3.35-2.4c-5.11 7.12-11.33 13.2-18.17 18.54-17.64 13.75-39.54 22.35-58.19 29.65l-117.87 46.09c-5.14 2.01-10.97 4.28-16.57 3.34-4.51-.76-8.41-3.48-12.54-6.36-.8-.56-1.61-1.12-2.41-1.66-35.98-24.25-81.43-16.45-105.31-9.64-20.4 5.82-40.08 14.51-59.11 22.92-13.25 5.86-26.95 11.91-40.74 16.92-28.29 10.28-72.54 17.58-106.96 5.78.8 1.71 1.59 3.43 2.42 5.12 11.94 3.57 24.85 5.08 37.8 5.08 24.84 0 49.79-5.45 68.14-12.12Z" class="cls-17"/><path d="M754.25 293.08c.72 15.56 2.67 31.73 11.94 44.61 2.43 3.37 5.3 6.39 8.07 9.32 3.83 4.04 7.45 7.86 9.97 12.47 5.05 9.23 5.01 20.59 4.98 30.6-.07 19.9-.15 42.45-8.52 61.88-11.62 27-37.15 44.92-62.31 60.97-32.63 20.81-71.78 44.23-114.76 60.16-44.67 16.55-87.33 22.63-126.81 18.06-11.29-1.31-22.93-3.53-34.19-5.69-16.11-3.08-32.51-6.19-48.68-6.83-14.65-.58-29.12.88-43.02 6.31l1.43 3.68.06.16c.47-.19.96-.33 1.43-.5 6.7-2.48 13.57-4.04 20.55-4.87 21.94-2.6 44.98 1.8 67.45 6.1 11.33 2.17 23.05 4.4 34.49 5.73 8.65 1 17.45 1.5 26.39 1.5 32.51 0 66.81-6.62 102.33-19.79 43.34-16.06 82.73-39.62 115.54-60.55 25.7-16.39 51.79-34.74 63.88-62.81 8.7-20.21 8.79-43.21 8.86-63.5.03-9.99.08-22.43-5.49-32.6-2.78-5.08-6.75-9.27-10.6-13.32-2.68-2.83-5.45-5.75-7.71-8.89-8.64-12.01-10.48-27.47-11.18-42.39-.09-2.05-.17-4.1-.25-6.16-.07-1.7-.13-3.42-.21-5.13-1.45-1.23-2.85-2.5-4.31-3.7.17 3.01.29 6.01.4 9 .08 2.07.16 4.14.26 6.2ZM569.51 706.57c-2.81 1.95-5.7 3.78-8.66 5.5-20.29 11.76-43.8 17.83-67.28 17.1-15.4-.45-31.19-3.72-46.46-6.89-19.51-4.05-39.53-8.19-59.08-6.47-6.64.58-13.22 1.84-19.71 4.01l1.3 3.91c2.45-.82 4.9-1.47 7.36-2.03 22.27-5.11 45.17-.38 69.28 4.62 15.44 3.2 31.41 6.52 47.17 6.98 1.24.03 2.47.05 3.71.05 25.03 0 49.91-7.42 70.95-20.99 1.25-.81 2.54-1.55 3.76-2.4l-2.35-3.38ZM694.34 756.3c-4.25-.54-8.51-1.08-12.77-1.5-41.95-4.13-87.15 2.93-142.27 22.22-23.31 8.15-46.47 17.75-68.88 27.03-15.16 6.28-30.69 12.69-46.33 18.71-6.33 2.43-12.68 4.82-19.03 7.08l1.38 3.88c8.87-3.15 17.71-6.54 26.5-10 13.18-5.18 26.25-10.56 39.05-15.86 22.36-9.26 45.47-18.84 68.67-26.95 54.54-19.08 99.19-26.08 140.51-22.01 4.22.41 8.44.95 12.65 1.49 11.17 1.42 22.73 2.9 34.22 2.01 3.45-.26 6.72-.82 9.9-1.52 14.05-3.08 25.29-10.18 31.54-20.35l-3.51-2.16c-4.1 6.67-10.89 11.97-19.31 15.47-5.67 2.36-12.06 3.92-18.94 4.45-11.08.85-22.42-.6-33.39-1.99ZM843.29 507.99c-4.31 5-8.77 10.17-11.49 16.42-3.43 7.86-3.68 19.23 3.88 25.64 1.43 1.22 3.02 2.13 4.55 3.02 1.87 1.09 3.64 2.11 4.92 3.55 3.38 3.81 2.62 9.94.47 14.02-2.22 4.23-5.96 7.7-9.57 11.05l-1.49 1.39c-25.23 23.69-42.84 55.42-49.61 89.36-.01.06-.03.12-.04.18l4.04.8c.47-2.36 1.01-4.71 1.58-7.05 7.5-30.5 23.95-58.78 46.85-80.28l1.47-1.37c3.86-3.59 7.86-7.3 10.41-12.16 2.88-5.47 3.67-13.37-1.03-18.67-1.72-1.94-3.86-3.18-5.94-4.38-1.44-.84-2.8-1.62-3.95-2.6-5.69-4.82-5.69-14.13-2.77-20.85 2.48-5.68 6.54-10.39 10.83-15.38 1.25-1.45 2.5-2.89 3.7-4.36 8.69-10.6 15.28-22.79 19.62-35.74-.55-2.76-1.19-5.48-1.81-8.22-3.98 15.04-11.08 29.26-20.99 41.34-1.18 1.44-2.41 2.86-3.63 4.29Z" class="cls-17"/><path d="M479.53 715.35c1.94.33 3.61.61 4.76.91 7.61 1.97 16.44 4.26 25.31 4.26 4.7 0 9.43-.64 13.99-2.32 5.59-2.05 10.5-6.98 9.05-12.45-1.7-6.42-10.06-7.25-12.81-7.53l-33.3-3.34c-11.93-1.22-25.93-1.56-28.22 6.72-.57 2.04-.3 4.02.78 5.72 3.24 5.09 13.18 6.78 20.44 8.01Zm-17.25-12.63c.59-2.12 3.59-4.32 13.48-4.32 2.85 0 6.26.18 10.35.6l33.31 3.34c5.49.55 8.59 2.05 9.23 4.48.8 3.05-2.74 6.16-6.49 7.53-11.06 4.06-23.23 1.46-36.84-2.07-1.23-.32-3.03-.63-5.1-.98-5.76-.98-15.39-2.61-17.65-6.16-.46-.72-.55-1.49-.29-2.41ZM715.56 380.25c-4.84.26-8.58 9.4-13.78 26.18-.67 2.15-1.19 3.86-1.54 4.76-.57 1.47-1.17 2.98-1.77 4.52-3.08 7.77-6.58 16.57-7.48 24.9-.57 5.3.45 8.49 3.02 9.48.47.18.96.27 1.46.27 2.49 0 5.38-2.15 8.32-6.23 5.49-7.64 10.58-18.56 13.96-29.98 2.07-7 5.47-26.88 1.21-32.28-.87-1.11-2.03-1.63-3.4-1.61Zm-1.77 32.72c-3.26 10.99-8.12 21.47-13.35 28.74-2.76 3.85-4.62 4.54-4.91 4.54-.24-.19-.83-1.56-.44-5.21.84-7.77 4.08-15.93 7.21-23.82.61-1.55 1.22-3.07 1.79-4.56.37-.95.93-2.75 1.63-5.02 4.58-14.78 7.95-22.6 10-23.27 2.02 1.85 1.36 17.51-1.92 28.59ZM388.31 274.86c6.49-2.47 9.92-6.65 9.19-11.17-.69-4.27-4.65-7-11.75-8.13-8.16-1.29-16.53-2.6-24.97-2.89-2.2 1.37-4.39 2.75-6.55 4.17 1.11-.05 2.23-.11 3.35-.11 9.22 0 18.5 1.47 27.53 2.9 5.15.82 7.95 2.4 8.33 4.71.47 2.89-3.26 5.4-6.59 6.66-18.39 7-39.76 5.38-55.6 2.39-1.43 1.12-2.88 2.21-4.29 3.35 8.54 1.8 19.01 3.33 29.99 3.33s21.29-1.38 31.37-5.21ZM561.69 373.1c2.21 0 4.6-.79 6.64-1.99 5.35-3.15 16.25-13.58 17.18-23.42.38-4.04-1.01-7.56-4-10.18-2.71-2.37-5.51-3.24-8.32-2.54-7.29 1.79-11.92 13.71-14.99 21.59-.61 1.56-1.12 2.89-1.55 3.83-.84 1.85-3.08 6.75-.3 10.3 1.34 1.71 3.26 2.41 5.34 2.41Zm-1.29-11c.45-.99 1-2.4 1.64-4.05 2.42-6.22 6.92-17.81 12.13-19.08.29-.07.58-.11.87-.11 1.18 0 2.42.58 3.75 1.74 2.02 1.77 2.87 3.96 2.61 6.7-.69 7.32-9.44 16.89-15.17 20.25-1.96 1.15-5.35 2.26-6.65.59-1.1-1.41-.07-4.13.81-6.05ZM729.33 747.1c1.05 0 2.16-.12 3.31-.35 4.96-1.02 8.91-4.16 12.84-7.56 1.75-1.52 3.94-3.41 5.4-5.9 1.72-2.95 2.03-6.28.83-8.93-1.35-2.98-4.67-5.04-8.45-5.26-3.16-.18-6.1.79-8.84 1.87-3.68 1.45-7.87 3.39-11.01 6.84-4.01 4.41-5.13 10.45-2.72 14.69 1.71 3 4.77 4.6 8.64 4.6Zm-2.88-16.52c2.57-2.82 6.23-4.51 9.47-5.78 2.14-.84 4.41-1.61 6.6-1.61.17 0 .34 0 .5.01 1.86.11 4.1 1.03 4.93 2.85.76 1.68.17 3.77-.64 5.15-1.03 1.76-2.6 3.18-4.54 4.86-3.51 3.03-6.98 5.82-10.97 6.64-3.62.75-6.29-.05-7.55-2.25-1.54-2.71-.64-6.77 2.19-9.88Z" class="cls-17"/><path d="M787.84 357.5c-2.78-5.08-6.75-9.27-10.6-13.32-2.68-2.83-5.45-5.75-7.71-8.89-8.64-12.01-10.48-27.47-11.18-42.39-.09-2.05-.17-4.1-.25-6.16-.06-1.6-.12-3.22-.19-4.83-1.45-1.23-2.85-2.51-4.31-3.71.16 2.91.28 5.82.39 8.7.08 2.07.16 4.14.26 6.2.72 15.56 2.67 31.73 11.94 44.61 2.43 3.37 5.3 6.39 8.07 9.32 3.83 4.04 7.45 7.86 9.97 12.47 5.05 9.23 5.01 20.59 4.98 30.6-.03 8.19-.1 16.83-.71 25.51 1.06 3.65 2.09 7.31 3.02 11.01 1.67-12.37 1.77-24.88 1.81-36.51.03-9.99.08-22.43-5.49-32.6ZM651.18 220.72c15.51 15.58 31.71 33.7 45.62 53.12a298.932 298.932 0 0 1 35.36 35.98c-12.82-28.03-32.97-54.98-53.81-78.22-8.86-4-17.92-7.64-27.17-10.88ZM213.14 576.1a146.22 146.22 0 0 1-8.42-3.37c.51 4.72 1.09 9.42 1.8 14.08 3.6 1.38 7.26 2.61 10.96 3.73-1.56-4.76-3.02-9.57-4.34-14.44ZM324.22 737.41c-5.18-3.81-10.25-7.76-15.16-11.88-18.01 1.18-34.61.08-49.65-3.34 3.53 5.25 7.21 10.39 11.03 15.43 8.03 1.09 16.35 1.69 25.04 1.69 9.21 0 18.81-.67 28.74-1.9ZM267.92 683.58c-11.7-.5-23.19-2.36-33.77-6.02.8 1.71 1.58 3.44 2.41 5.14 11.04 3.33 22.9 4.88 34.88 5.11-1.17-1.41-2.38-2.79-3.53-4.22ZM835.65 377.23c-5.52-10.13-11.58-19.93-18.09-29.4 11.07 43.35 5.78 93.56-16.45 137.87-.33.65-.7 1.3-1.04 1.95.13 3.6.26 7.19.26 10.82 0 5.76-.21 11.46-.53 17.14 4.46-7.74 9.07-15.73 13.18-23.95 18.26-36.4 25.64-76.6 22.66-114.43Z" class="cls-12"/><path d="M537.98 845.77c58.97 0 119.66-13.45 196.67-66.15 41.14-28.15 43.91-43.1 43.34-61.16-.3-9.55-.56-17.8 12.58-32.49 14.44-16.14 28.52-30 42.13-43.4 12.81-12.61 25.08-24.69 36.24-37.4 1.84-8.72 3.26-17.58 4.39-26.54-13.99 18.98-31.03 35.83-49.96 54.47-10.66 10.49-21.6 21.29-32.83 33.26 7.5-30.5 23.95-58.78 46.85-80.28l1.47-1.37c3.86-3.59 7.86-7.3 10.41-12.16 2.88-5.47 3.67-13.37-1.03-18.67-1.72-1.94-3.86-3.18-5.94-4.38-1.44-.84-2.8-1.62-3.95-2.6-5.69-4.82-5.69-14.13-2.77-20.85 2.47-5.68 6.54-10.39 10.83-15.38 1.25-1.45 2.5-2.89 3.7-4.36 8.62-10.52 15.17-22.6 19.51-35.43-.55-2.75-1.18-5.47-1.8-8.2-4 14.92-11.06 29.01-20.9 41.01-1.18 1.44-2.41 2.86-3.63 4.29-4.31 5-8.77 10.17-11.49 16.42-3.43 7.86-3.68 19.23 3.88 25.64 1.43 1.22 3.02 2.13 4.55 3.02 1.87 1.09 3.64 2.11 4.92 3.55 3.38 3.81 2.62 9.94.47 14.02-2.22 4.23-5.96 7.7-9.57 11.05l-1.49 1.39c-25.23 23.69-42.84 55.42-49.61 89.36-1.44 1.57-2.85 3.06-4.3 4.67-16.69 18.66-16.29 31.48-15.96 41.77.32 9.94.51 18.86-18.04 34.96-5.67 2.36-12.06 3.92-18.94 4.45-11.08.85-22.42-.6-33.39-1.99-4.25-.54-8.51-1.08-12.77-1.5-8.95-.88-18.06-1.22-27.37-1.07-2.52 1.49-5.07 2.94-7.63 4.36 11.86-.55 23.36-.29 34.6.81 4.22.41 8.44.95 12.65 1.49 11.17 1.42 22.73 2.89 34.22 2.01 3.45-.26 6.72-.82 9.9-1.52-3.23 2.45-6.75 5.01-10.8 7.77-111.17 76.06-187.56 67.28-276.02 57.12-6.02-.69-12.09-1.38-18.19-2.05 13.18-5.18 26.25-10.56 39.05-15.86 10.01-4.15 20.2-8.35 30.46-12.46-.31 0-.61.02-.92.02-3.2 0-6.37-.13-9.55-.23-7.24 2.95-14.45 5.92-21.56 8.86-15.16 6.28-30.69 12.69-46.33 18.71-21-2.21-42.72-4-65.82-4.44 8.02 5.1 16.25 9.88 24.72 14.3 23.13 1.39 45.11 3.88 66.63 6.36 30.23 3.47 59.09 6.79 88.37 6.79ZM539.4 201.75c-2.81 0-5.62.05-8.41.12 1.3.52 2.6 1.04 3.9 1.58a298.87 298.87 0 0 1 41.42 7.56c-4.58-2.97-9.29-5.79-14.14-8.41-7.53-.5-15.1-.85-22.76-.85Z" class="cls-12"/><path d="M729.32 747.1c1.05 0 2.16-.12 3.31-.35 4.96-1.02 8.91-4.16 12.84-7.56 1.75-1.52 3.94-3.41 5.4-5.9 1.72-2.95 2.03-6.28.83-8.93-1.35-2.98-4.67-5.04-8.45-5.26-3.15-.19-6.11.8-8.84 1.87-3.68 1.45-7.87 3.39-11.01 6.84-4.01 4.41-5.13 10.45-2.72 14.69 1.71 3 4.77 4.6 8.64 4.6Zm-2.88-16.52c2.57-2.82 6.23-4.51 9.47-5.78 2.14-.84 4.41-1.61 6.6-1.61.17 0 .34 0 .5.01 1.86.11 4.1 1.03 4.93 2.85.76 1.68.17 3.77-.64 5.15-1.03 1.76-2.6 3.18-4.54 4.86-3.51 3.03-6.98 5.82-10.97 6.64-3.62.75-6.29-.05-7.55-2.25-1.54-2.71-.64-6.77 2.19-9.88Z" class="cls-12"/><ellipse cx="539.57" cy="532.17" class="cls-16" rx="332.96" ry="339.08" style="mix-blend-mode:screen;opacity:.4" transform="rotate(-89.66 539.555 532.173)"/><g style="mix-blend-mode:color-dodge;opacity:.6"><ellipse cx="506.89" cy="504.39" rx="293.71" ry="295.68" style="fill:#061c9e;opacity:.05;stroke-width:0" transform="rotate(-89.66 506.85 504.392)"/><ellipse cx="504.78" cy="503.34" rx="289.43" ry="291.49" style="fill:#0b1fa3;opacity:.1;stroke-width:0" transform="rotate(-89.66 504.746 503.34)"/><ellipse cx="502.68" cy="502.29" rx="285.15" ry="287.3" style="fill:#1123a8;opacity:.14;stroke-width:0" transform="rotate(-89.66 502.647 502.283)"/><ellipse cx="500.57" cy="501.23" rx="280.87" ry="283.11" style="fill:#1626ac;opacity:.19;stroke-width:0" transform="rotate(-89.66 500.542 501.23)"/><ellipse cx="498.47" cy="500.18" rx="276.58" ry="278.92" style="fill:#1c29b1;opacity:.24;stroke-width:0" transform="rotate(-89.66 498.438 500.179)"/><ellipse cx="496.36" cy="499.13" rx="272.3" ry="274.73" style="fill:#212cb6;opacity:.29;stroke-width:0" transform="rotate(-89.66 496.334 499.127)"/><ellipse cx="494.26" cy="498.07" rx="268.02" ry="270.55" style="fill:#2730bb;opacity:.33;stroke-width:0" transform="rotate(-89.66 494.234 498.07)"/><ellipse cx="492.15" cy="497.02" rx="263.74" ry="266.36" style="fill:#2c33c0;opacity:.38;stroke-width:0" transform="rotate(-89.66 492.13 497.018)"/><ellipse cx="490.05" cy="495.97" rx="259.46" ry="262.17" style="fill:#3236c5;opacity:.43;stroke-width:0" transform="rotate(-89.66 490.025 495.966)"/><ellipse cx="487.94" cy="494.91" rx="255.18" ry="257.98" style="fill:#3739ca;opacity:.48;stroke-width:0" transform="rotate(-89.66 487.921 494.914)"/><ellipse cx="485.84" cy="493.86" rx="250.9" ry="253.79" style="fill:#3d3dce;opacity:.52;stroke-width:0" transform="rotate(-89.66 485.822 493.857)"/><ellipse cx="483.73" cy="492.81" rx="246.61" ry="249.6" style="fill:#4240d3;opacity:.57;stroke-width:0" transform="rotate(-89.66 483.717 492.806)"/><ellipse cx="481.63" cy="491.75" rx="242.33" ry="245.41" style="fill:#4843d8;opacity:.62;stroke-width:0" transform="rotate(-89.66 481.613 491.754)"/><ellipse cx="479.52" cy="490.7" rx="238.05" ry="241.22" style="fill:#4d46dd;opacity:.67;stroke-width:0" transform="rotate(-89.66 479.509 490.702)"/><ellipse cx="477.42" cy="489.65" rx="233.77" ry="237.04" style="fill:#534ae2;opacity:.71;stroke-width:0" transform="rotate(-89.66 477.404 489.65)"/><ellipse cx="475.31" cy="488.59" rx="229.49" ry="232.85" style="stroke-width:0;fill:#584de7;opacity:.76" transform="rotate(-89.66 475.305 488.593)"/><ellipse cx="473.21" cy="487.54" rx="225.21" ry="228.66" style="fill:#5e50ec;opacity:.81;stroke-width:0" transform="rotate(-89.66 473.2 487.541)"/><ellipse cx="471.11" cy="486.49" rx="220.92" ry="224.47" style="fill:#6353f0;opacity:.86;stroke-width:0" transform="rotate(-89.66 471.091 486.484)"/><ellipse cx="469" cy="485.43" rx="216.64" ry="220.28" style="fill:#6957f5;opacity:.9;stroke-width:0" transform="rotate(-89.66 468.987 485.432)"/><ellipse cx="466.9" cy="484.38" rx="212.36" ry="216.09" style="fill:#6e5afa;opacity:.95;stroke-width:0" transform="rotate(-89.66 466.882 484.38)"/><ellipse cx="464.79" cy="483.33" class="cls-16" rx="208.08" ry="211.9" transform="rotate(-89.66 464.778 483.328)"/></g></g></g></svg>