<svg xmlns="http://www.w3.org/2000/svg" id="_1" data-name="1" viewBox="0 0 1126.53 739.28"><defs><clipPath id="clippath"><path d="M482.47 224.87c-30.89 17.71-48.8 44.49-40.01 59.82l26.56 46.33 111.86-64.12-26.56-46.33c-8.79-15.33-40.95-13.41-71.84 4.29Z" style="fill:none;stroke-width:0"/></clipPath><style>.cls-10,.cls-12,.cls-13,.cls-14,.cls-15,.cls-16,.cls-17,.cls-18,.cls-20,.cls-3,.cls-6,.cls-8{stroke-width:0}.cls-3{fill:#363773}.cls-6{fill:#6576c7}.cls-8{fill:#dbc69a}.cls-10{fill:#5254bf}.cls-12{fill:#4a5cb0}.cls-13{fill:#d18080}.cls-14{fill:#6785cc}.cls-15{fill:#8ba8f7}.cls-16{fill:#6f8fd4}.cls-17{fill:#75abd4}.cls-18{fill:#ffeeae}.cls-20{fill:#475387}</style></defs><path d="M551.6 197.08c-.09-.16-.16-.33-.25-.49-10.07-17.56-46.9-15.36-82.28 4.92s-55.9 50.95-45.83 68.51c.07.13.16.24.24.37h-.02c1.48 3.46 6.41 12.01 7.91 13.81l6.72-3.85c16.49 4.42 42.32-.85 67.43-15.25 25.11-14.39 42.72-34.02 47.23-50.48l6.69-3.83c-1.17-2.9-5.91-11.34-7.84-13.71Z" class="cls-17"/><path d="M457.15 281.55c11.79-1.05 25.38-4.93 39.12-11.57l-36.08-62.95c-12.67 8.5-22.9 18.25-29.77 27.89l26.73 46.64Z" class="cls-18"/><path d="M551.6 197.08c-.09-.16-.16-.33-.25-.49-7.93-13.83-32.46-15.39-59.8-5.54l34.35 59.93c14.09-11.75 23.69-24.83 26.86-36.36l6.69-3.83c-1.17-2.9-5.91-11.34-7.84-13.71Z" class="cls-6"/><ellipse cx="494.89" cy="246.54" class="cls-8" rx="73.83" ry="36.65" transform="rotate(-29.82 494.907 246.542)"/><path d="M482.47 224.87c-30.89 17.71-48.8 44.49-40.01 59.82l26.56 46.33 111.86-64.12-26.56-46.33c-8.79-15.33-40.95-13.41-71.84 4.29Z" class="cls-20"/><path d="m682.34 222.197 56.393-32.323 32.323 56.394-56.394 32.323z" class="cls-12"/><path d="m708.384 207.26 4.312-2.472 32.323 56.393-4.312 2.472z" class="cls-14"/><path d="m753.64 215.894 2.472 4.312-56.393 32.323-2.472-4.312z" class="cls-14"/><path d="m717.669 283.818 56.393-32.323 32.323 56.394-56.393 32.323z" class="cls-12"/><path d="m743.705 268.895 4.312-2.471 32.323 56.393-4.312 2.471z" class="cls-14"/><path d="m788.955 277.515 2.471 4.312-56.393 32.323-2.471-4.312z" class="cls-14"/><path d="m742.83 187.528 56.393-32.323 32.323 56.393-56.394 32.323z" class="cls-12"/><path d="m768.866 172.594 4.312-2.471 32.323 56.393-4.312 2.472z" class="cls-14"/><path d="m814.126 181.226 2.471 4.312-56.393 32.323-2.472-4.312z" class="cls-14"/><path d="m778.15 249.154 56.393-32.323 32.323 56.393-56.393 32.323z" class="cls-12"/><path d="m804.195 234.245 4.312-2.471 32.323 56.393-4.312 2.472z" class="cls-14"/><path d="m849.415 242.865 2.471 4.312-56.393 32.323-2.472-4.312z" class="cls-14"/><path d="m803.31 152.853 56.394-32.323 32.323 56.393-56.393 32.323z" class="cls-12"/><path d="m829.347 137.93 4.312-2.472 32.323 56.394-4.312 2.471z" class="cls-14"/><path d="m874.6 146.557 2.472 4.312-56.394 32.323-2.471-4.312z" class="cls-14"/><path d="m838.64 214.484 56.393-32.323 32.323 56.393-56.393 32.323z" class="cls-12"/><path d="m864.676 199.55 4.312-2.47 32.323 56.393-4.312 2.471z" class="cls-14"/><path d="m909.93 208.186 2.47 4.312-56.393 32.323-2.471-4.312z" class="cls-14"/><path d="m863.792 118.188 56.394-32.323 32.323 56.394-56.394 32.323z" class="cls-12"/><path d="m889.837 103.25 4.312-2.471 32.323 56.393-4.312 2.471z" class="cls-14"/><path d="m935.09 111.887 2.471 4.312-56.393 32.323-2.471-4.312z" class="cls-14"/><path d="m899.121 179.82 56.394-32.324 32.323 56.394-56.394 32.323z" class="cls-12"/><path d="m925.158 164.886 4.312-2.472 32.323 56.394-4.312 2.471z" class="cls-14"/><path d="m970.414 173.518 2.472 4.312-56.394 32.323-2.471-4.312z" class="cls-14"/><path d="m924.282 83.519 56.394-32.323 32.323 56.393-56.394 32.323z" class="cls-12"/><path d="m950.319 68.585 4.312-2.471 32.323 56.393-4.312 2.472z" class="cls-14"/><path d="m995.575 77.219 2.471 4.312-56.393 32.323-2.472-4.312z" class="cls-14"/><path d="m959.603 145.144 56.393-32.323 32.323 56.394-56.393 32.323z" class="cls-12"/><path d="m985.65 130.241 4.311-2.471 32.323 56.393-4.312 2.472z" class="cls-14"/><path d="m1030.859 138.86 2.471 4.311-56.393 32.323-2.472-4.312z" class="cls-14"/><path d="m639.386 317.58 66.562-38.152 7.265 12.676-66.561 38.15z" class="cls-15"/><path d="M749.26 357.47c-1.07 0-2.14-.14-3.2-.43-3.13-.85-5.74-2.87-7.36-5.68l-71-123.87c-1.61-2.81-2.03-6.09-1.18-9.22s2.87-5.74 5.68-7.36l365.15-209.3a12.08 12.08 0 0 1 9.22-1.18c3.13.85 5.74 2.87 7.36 5.68l71 123.87c3.33 5.81 1.31 13.24-4.49 16.57l-365.15 209.3a12.046 12.046 0 0 1-6.02 1.61Zm294.12-347.03c-.25 0-.54.05-.84.23l-365.15 209.3c-.53.31-.73.78-.8 1.04-.07.25-.14.76.17 1.3l71 123.87c.31.53.78.73 1.04.8.25.06.76.14 1.3-.17l365.15-209.3c.82-.47 1.1-1.52.63-2.33l-71-123.87a1.727 1.727 0 0 0-1.49-.86Zm74.46 131.59h.02-.02Z" class="cls-15"/><path d="m1073.64 72.772-56.393 32.323-32.323-56.393 56.393-32.323z" class="cls-12"/><path d="m1047.604 87.696-4.312 2.471-32.323-56.393 4.312-2.472z" class="cls-14"/><path d="m1056.206 42.456 2.471 4.312-56.393 32.323-2.472-4.312z" class="cls-14"/><path d="m1108.96 134.402-56.393 32.323-32.323-56.394 56.394-32.323z" class="cls-12"/><path d="m1082.914 149.295-4.312 2.471-32.323-56.393 4.312-2.472z" class="cls-14"/><path d="m1091.555 104.076 2.471 4.312-56.393 32.323-2.472-4.312z" class="cls-14"/><path d="M690.2 258.66a3.127 3.127 0 0 1-1.56-5.84l17.87-10.24c1.51-.86 3.42-.34 4.27 1.16.86 1.5.34 3.41-1.16 4.27l-17.87 10.24c-.49.28-1.03.42-1.55.42ZM725.18 319.68a3.127 3.127 0 0 1-1.56-5.84l17.87-10.24c1.51-.86 3.42-.34 4.27 1.16.86 1.5.34 3.41-1.16 4.27l-17.87 10.24c-.49.28-1.03.42-1.55.42ZM1048.27 53.42a3.127 3.127 0 0 1-1.56-5.84l17.87-10.24c1.51-.86 3.42-.34 4.27 1.16.86 1.5.34 3.41-1.16 4.27l-17.87 10.24c-.49.28-1.03.42-1.55.42ZM1083.24 114.43a3.127 3.127 0 0 1-1.56-5.84l17.87-10.24c1.51-.86 3.42-.34 4.27 1.16.86 1.5.34 3.41-1.16 4.27l-17.87 10.24c-.49.28-1.03.42-1.55.42ZM717.07 219.52c-1.09 0-2.14-.56-2.72-1.57l-10.24-17.87c-.86-1.5-.34-3.41 1.16-4.27 1.51-.86 3.42-.34 4.27 1.16l10.24 17.87c.86 1.5.34 3.41-1.16 4.27-.49.28-1.03.42-1.55.42ZM837.11 150.71c-1.08 0-2.14-.56-2.72-1.57l-10.24-17.87c-.86-1.5-.34-3.41 1.16-4.27 1.51-.86 3.42-.34 4.27 1.16l10.24 17.87c.86 1.5.34 3.41-1.16 4.27-.49.28-1.03.42-1.55.42ZM777.22 185.04c-1.09 0-2.14-.56-2.72-1.57l-10.24-17.87c-.86-1.5-.34-3.41 1.16-4.27 1.5-.86 3.42-.34 4.27 1.16l10.24 17.87c.86 1.5.34 3.41-1.16 4.27-.49.28-1.03.42-1.55.42ZM958.28 81.26c-1.09 0-2.14-.56-2.72-1.57l-10.24-17.87c-.86-1.5-.34-3.41 1.16-4.27 1.5-.86 3.42-.34 4.27 1.16l10.24 17.87c.86 1.5.34 3.41-1.16 4.27-.49.28-1.03.42-1.55.42ZM897.93 115.85c-1.09 0-2.14-.56-2.72-1.57l-10.24-17.87c-.86-1.5-.34-3.41 1.16-4.27 1.51-.86 3.42-.34 4.27 1.16l10.24 17.87c.86 1.5.34 3.41-1.16 4.27-.49.28-1.03.42-1.55.42ZM1018.9 46.51c-1.09 0-2.14-.56-2.72-1.57l-10.24-17.87c-.86-1.5-.34-3.41 1.16-4.27 1.51-.86 3.41-.34 4.27 1.16l10.24 17.87c.86 1.5.34 3.41-1.16 4.27-.49.28-1.03.42-1.55.42ZM783.81 335.96c-1.09 0-2.14-.56-2.72-1.57l-10.24-17.87c-.86-1.5-.34-3.41 1.16-4.27 1.51-.86 3.41-.34 4.27 1.16l10.24 17.87c.86 1.5.34 3.41-1.16 4.27-.49.28-1.03.42-1.55.42ZM903.86 267.15c-1.09 0-2.14-.56-2.72-1.57l-10.24-17.87c-.86-1.5-.34-3.41 1.16-4.27 1.51-.86 3.41-.34 4.27 1.16l10.24 17.87c.86 1.5.34 3.41-1.16 4.27-.49.28-1.03.42-1.55.42ZM843.97 301.48c-1.09 0-2.14-.56-2.72-1.57l-10.24-17.87c-.86-1.5-.34-3.41 1.16-4.27 1.51-.86 3.42-.34 4.27 1.16l10.24 17.87c.86 1.5.34 3.41-1.16 4.27-.49.28-1.03.42-1.55.42ZM1025.03 197.7c-1.09 0-2.14-.56-2.72-1.57l-10.24-17.87c-.86-1.5-.34-3.41 1.16-4.27 1.51-.86 3.42-.34 4.27 1.16l10.24 17.87c.86 1.5.34 3.41-1.16 4.27-.49.28-1.03.42-1.55.42ZM964.67 232.29c-1.08 0-2.14-.56-2.72-1.57l-10.25-17.87c-.86-1.5-.34-3.41 1.16-4.27 1.51-.86 3.41-.34 4.27 1.16l10.25 17.87c.86 1.5.34 3.41-1.16 4.27-.49.28-1.03.42-1.55.42ZM1085.64 162.95c-1.09 0-2.14-.56-2.72-1.57l-10.24-17.87c-.86-1.5-.34-3.41 1.16-4.27 1.51-.86 3.42-.34 4.27 1.16l10.24 17.87c.86 1.5.34 3.41-1.16 4.27-.49.28-1.03.42-1.55.42Z" class="cls-15"/><path d="m639.393 317.57 24.96-14.307 7.266 12.675-24.961 14.307z" class="cls-10"/><path d="m408.17 454.237-56.393 32.323-32.323-56.394 56.393-32.323z" class="cls-12"/><path d="m382.134 469.16-4.312 2.471-32.323-56.393 4.312-2.472z" class="cls-14"/><path d="m390.77 423.886 2.471 4.312-56.393 32.323-2.472-4.312z" class="cls-14"/><path d="m443.51 515.85-56.394 32.324-32.323-56.394 56.394-32.323z" class="cls-12"/><path d="m417.463 530.784-4.312 2.472-32.323-56.394 4.312-2.471z" class="cls-14"/><path d="m426.064 485.507 2.472 4.312-56.394 32.323-2.471-4.312z" class="cls-14"/><path d="m347.7 488.897-56.393 32.323-32.323-56.393 56.393-32.323z" class="cls-12"/><path d="m321.655 503.825-4.312 2.472-32.323-56.394 4.312-2.471z" class="cls-14"/><path d="m330.285 458.555 2.472 4.312-56.394 32.323-2.471-4.312z" class="cls-14"/><path d="m383.021 550.526-56.393 32.323-32.323-56.393 56.393-32.323z" class="cls-12"/><path d="m356.985 565.45-4.312 2.47-32.323-56.393 4.312-2.471z" class="cls-14"/><path d="m365.6 520.185 2.47 4.312-56.393 32.323-2.471-4.312z" class="cls-14"/><path d="m287.212 523.562-56.394 32.323-32.323-56.393 56.394-32.323z" class="cls-12"/><path d="m261.175 538.496-4.312 2.471-32.323-56.393 4.312-2.472z" class="cls-14"/><path d="m269.786 493.215 2.471 4.312-56.393 32.323-2.472-4.312z" class="cls-14"/><path d="m322.532 585.191-56.393 32.323-32.323-56.393 56.393-32.323z" class="cls-12"/><path d="m296.506 600.105-4.312 2.471-32.323-56.393 4.312-2.472z" class="cls-14"/><path d="m305.125 554.854 2.471 4.312-56.393 32.323-2.472-4.312z" class="cls-14"/><path d="m226.733 558.238-56.394 32.323-32.323-56.394 56.394-32.323z" class="cls-12"/><path d="m200.687 573.16-4.312 2.472-32.323-56.393 4.312-2.472z" class="cls-14"/><path d="m209.31 527.893 2.472 4.312-56.393 32.323-2.472-4.312z" class="cls-14"/><path d="m262.062 619.862-56.393 32.323-32.323-56.394 56.393-32.323z" class="cls-12"/><path d="m236.017 634.79-4.312 2.471-32.323-56.393 4.312-2.472z" class="cls-14"/><path d="m244.63 589.513 2.471 4.312-56.393 32.323-2.472-4.312z" class="cls-14"/><path d="m166.244 592.903-56.393 32.323-32.323-56.394 56.393-32.323z" class="cls-12"/><path d="m140.218 607.816-4.312 2.472-32.323-56.394 4.312-2.471z" class="cls-14"/><path d="m148.836 562.562 2.472 4.312-56.394 32.323-2.471-4.312z" class="cls-14"/><path d="m201.579 654.536-56.394 32.323-32.323-56.394 56.394-32.323z" class="cls-12"/><path d="m175.542 669.469-4.312 2.471-32.323-56.393 4.312-2.472z" class="cls-14"/><path d="m184.159 624.178 2.471 4.312-56.393 32.323-2.472-4.312z" class="cls-14"/><path d="m413.336 447.166 66.561-38.15 7.265 12.675-66.561 38.15z" class="cls-15"/><path d="M83.17 739.28c-1.07 0-2.14-.14-3.2-.43-3.13-.85-5.74-2.87-7.36-5.68l-71-123.88a12.075 12.075 0 0 1-1.18-9.22c.85-3.13 2.87-5.74 5.68-7.36l365.15-209.3c5.81-3.33 13.24-1.31 16.57 4.5l71 123.87c1.61 2.81 2.03 6.09 1.18 9.22-.85 3.13-2.87 5.74-5.68 7.36L89.18 737.67a12.046 12.046 0 0 1-6.02 1.61Zm3.43-6.14h.02-.02Zm290.7-340.9c-.29 0-.58.07-.85.23L11.3 601.77c-.54.31-.73.78-.8 1.04-.07.25-.14.76.17 1.3l71 123.87c.31.53.78.73 1.04.8.26.07.76.14 1.3-.17l365.15-209.3c.53-.31.73-.78.8-1.03.07-.26.14-.76-.17-1.3l-71-123.87a1.7 1.7 0 0 0-1.48-.86Z" class="cls-15"/><path d="m16.85 603.633 56.393-32.323 32.323 56.394-56.394 32.323z" class="cls-12"/><path d="m42.886 588.71 4.312-2.472 32.323 56.394-4.312 2.471z" class="cls-14"/><path d="m88.17 597.326 2.472 4.312-56.394 32.323-2.471-4.312z" class="cls-14"/><path d="m52.178 665.264 56.394-32.323 32.323 56.393L84.5 721.657z" class="cls-12"/><path d="m78.215 650.34 4.312-2.47 32.323 56.393-4.312 2.471z" class="cls-14"/><path d="m123.5 658.965 2.47 4.312L69.578 695.6l-2.471-4.312z" class="cls-14"/><path d="M382.79 434.87a3.127 3.127 0 0 1-1.56-5.84l17.87-10.24c1.51-.86 3.42-.34 4.27 1.16.86 1.5.34 3.41-1.16 4.27l-17.87 10.24c-.49.28-1.03.42-1.55.42ZM417.76 495.89a3.127 3.127 0 0 1-1.56-5.84l17.87-10.24c1.51-.86 3.42-.34 4.27 1.16.86 1.5.34 3.41-1.16 4.27l-17.87 10.24c-.49.28-1.03.42-1.55.42ZM24.73 640.11a3.127 3.127 0 0 1-1.56-5.84l17.87-10.24c1.5-.86 3.41-.34 4.27 1.16.86 1.5.34 3.41-1.16 4.27L26.28 639.7c-.49.28-1.03.42-1.55.42ZM59.7 701.13a3.127 3.127 0 0 1-1.56-5.84l17.87-10.24c1.5-.86 3.41-.34 4.27 1.16.86 1.5.34 3.41-1.16 4.27l-17.87 10.24c-.49.28-1.03.42-1.55.42ZM353.31 428.03c-1.09 0-2.14-.56-2.72-1.57l-10.24-17.87c-.86-1.5-.34-3.41 1.16-4.27 1.51-.86 3.41-.34 4.27 1.16l10.24 17.87c.86 1.5.34 3.41-1.16 4.27-.49.28-1.03.42-1.55.42ZM233.26 496.84c-1.09 0-2.14-.56-2.72-1.57l-10.25-17.87c-.86-1.5-.34-3.41 1.16-4.27 1.5-.86 3.41-.34 4.27 1.16l10.25 17.87c.86 1.5.34 3.41-1.16 4.27-.49.28-1.03.42-1.55.42ZM293.15 462.51c-1.09 0-2.14-.56-2.72-1.57l-10.25-17.87c-.86-1.5-.34-3.41 1.16-4.27 1.5-.86 3.41-.34 4.27 1.16l10.25 17.87c.86 1.5.34 3.41-1.16 4.27-.49.28-1.03.42-1.55.42ZM112.1 566.29c-1.09 0-2.14-.56-2.72-1.57l-10.24-17.87c-.86-1.5-.34-3.41 1.16-4.27 1.5-.86 3.41-.34 4.27 1.16l10.24 17.87c.86 1.5.34 3.41-1.16 4.27-.49.28-1.03.42-1.55.42ZM172.45 531.7c-1.09 0-2.14-.56-2.72-1.57l-10.24-17.87c-.86-1.5-.34-3.41 1.16-4.27 1.5-.86 3.41-.34 4.27 1.16l10.24 17.87c.86 1.5.34 3.41-1.16 4.27-.49.28-1.03.42-1.55.42ZM51.48 601.04c-1.09 0-2.14-.56-2.72-1.57L38.52 581.6c-.86-1.5-.34-3.41 1.16-4.27 1.5-.86 3.41-.34 4.27 1.16l10.24 17.87c.86 1.5.34 3.41-1.16 4.27-.49.28-1.03.42-1.55.42ZM420.05 544.47c-1.09 0-2.14-.56-2.72-1.57l-10.24-17.87c-.86-1.5-.34-3.41 1.16-4.27 1.5-.86 3.42-.34 4.27 1.16l10.24 17.87c.86 1.5.34 3.41-1.16 4.27-.49.28-1.03.42-1.55.42ZM300.01 613.28c-1.09 0-2.14-.56-2.72-1.57l-10.24-17.87c-.86-1.5-.34-3.41 1.16-4.27 1.5-.86 3.41-.34 4.27 1.16l10.25 17.87c.86 1.5.34 3.41-1.16 4.27-.49.28-1.03.42-1.55.42ZM359.9 578.95c-1.09 0-2.14-.56-2.72-1.57l-10.24-17.87c-.86-1.5-.34-3.41 1.16-4.27 1.51-.86 3.42-.34 4.27 1.16l10.24 17.87c.86 1.5.34 3.41-1.16 4.27-.49.28-1.03.42-1.55.42ZM178.84 682.73c-1.09 0-2.14-.56-2.72-1.57l-10.24-17.87c-.86-1.5-.34-3.41 1.16-4.27 1.5-.86 3.41-.34 4.27 1.16l10.24 17.87c.86 1.5.34 3.41-1.16 4.27-.49.28-1.03.42-1.55.42ZM239.19 648.14c-1.09 0-2.14-.56-2.72-1.57l-10.24-17.87c-.86-1.5-.34-3.41 1.16-4.27 1.5-.86 3.41-.34 4.27 1.16l10.24 17.87c.86 1.5.34 3.41-1.16 4.27-.49.28-1.03.42-1.55.42ZM118.22 717.48c-1.09 0-2.14-.56-2.72-1.57l-10.24-17.87c-.86-1.5-.34-3.41 1.16-4.27 1.5-.86 3.41-.34 4.27 1.16l10.24 17.87c.86 1.5.34 3.41-1.16 4.27-.49.28-1.03.42-1.55.42Z" class="cls-15"/><path d="M454.934 423.308 479.894 409l7.266 12.676-24.96 14.306z" class="cls-10"/><g style="clip-path:url(#clippath)"><path d="m428.985 251.993 2.942-1.686 39.09 68.201-2.94 1.686zM435.476 248.268l2.941-1.686 39.091 68.202-2.94 1.685zM441.963 244.557l2.941-1.686 39.091 68.201-2.94 1.686zM448.435 240.847l2.942-1.686 39.09 68.202-2.94 1.685zM469.597 228.72l2.94-1.686 39.092 68.201-2.941 1.686zM476.079 225l2.941-1.686 39.09 68.201-2.94 1.686zM482.561 221.28l2.941-1.686 39.091 68.201-2.941 1.686zM489.047 217.564l2.94-1.686 39.092 68.201-2.941 1.686zM510.194 205.432l2.941-1.685 39.091 68.201-2.94 1.686zM516.681 201.731l2.942-1.685 39.09 68.201-2.94 1.686zM523.172 198.027l2.941-1.686 39.091 68.201-2.94 1.686zM529.65 194.305l2.94-1.685 39.091 68.201-2.94 1.686z" class="cls-3"/></g><path d="M501.13 257.43c-48.42 27.75-77.7 67.63-65.41 89.08l100.34 175.05 175.33-100.5-100.34-175.05c-12.29-21.44-61.5-16.33-109.92 11.42Z" class="cls-17"/><path d="M482.44 270.87c-18.99 13.23-28.01 22.17-34.85 30.94L558.9 496l39.58-22.69-116.04-202.44Z" class="cls-18"/><path d="M501.13 257.43c-14.92 8.55-28.01 18.25-38.64 28.21 17.39-14.46 82.46-48.69 102.71-13.36l100.34 175.05 45.84-26.28L611.04 246c-12.29-21.44-61.5-16.33-109.92 11.42Z" class="cls-6"/><path d="M711.39 421.06c9.28 16.18-29.15 40.12-77.57 67.87-48.42 27.75-88.49 48.81-97.77 32.63-9.28-16.18 22.45-51.8 70.87-79.55s95.19-37.13 104.46-20.95Z" class="cls-8"/><path d="m550.695 516.423 148.836-85.308 29.334 51.18-148.835 85.307z" class="cls-20"/><path d="M813.12 528.55c10.1 17.61-34.49 62.14-99.58 99.45s-126.05 53.28-136.15 35.67c-10.1-17.61-31.47-112.76 61.43-166.01 92.91-53.25 164.2 13.28 174.3 30.89Z" class="cls-17"/><path d="M598.9 625.37s-24.05-102.32 12.97-123.53c24.28-16.42 16.3 25.26 46.55 78.04l-59.52 45.5Z" class="cls-18"/><path d="M638.83 497.66c-16.93 9.7-30.05 20.8-40.15 32.57 3.12-2.07 6.38-4.1 9.81-6.07 92.91-53.25 137.04 50.4 108.37 81.4-7.99 8.64 3.84 11.17 2.53 19.04 61.89-36.58 103.53-78.97 93.74-96.05-10.1-17.61-81.39-84.14-174.3-30.89Z" class="cls-6"/><ellipse cx="695.26" cy="596.11" rx="135.85" ry="36.76" style="stroke-width:0;fill:#ffe0b3" transform="rotate(-29.82 695.301 596.134)"/><path d="M676.98 564.22c-65.1 37.31-109.68 81.84-99.58 99.45 6.49 11.32 34 8.75 70.11-4.43-1.1-1.1-2.06-2.31-2.83-3.65-9.66-16.84 11.06-46.86 46.26-67.04 35.2-20.18 71.57-22.88 81.23-6.04.77 1.35 1.33 2.79 1.72 4.29 29.62-24.5 45.74-46.94 39.25-58.26-10.1-17.61-71.05-1.65-136.15 35.67Z" class="cls-13"/><path d="M676.98 564.22c-65.1 37.31-109.68 81.84-99.58 99.45 1.85 3.22 5.39 5.31 10.35 6.36-1.78-19.8 39.02-59.28 96.89-92.45s112.56-48.43 128.74-36.89c1.6-4.81 1.59-8.93-.26-12.15-10.1-17.61-71.05-1.65-136.15 35.67Z" style="fill:#b76778;stroke-width:0"/><path d="M709.2 555.66s3.97 11.98 5.29 19.46c1.65 9.37-9.75 18.25-17.89 22.92-10.7 6.13-23.47 9.11-27.81 4.26l-13.56-15.7c-5.06-8.82 4.33-12.62 21.83-22.65s27.08-17.11 32.14-8.29Z" style="fill:#6583c7;stroke-width:0"/><path d="M698.85 596.68c7.86-4.97 17.06-13.3 15.56-21.84-1.31-7.48-5.22-19.18-5.22-19.18-1.5-2.62-3.41-3.81-5.8-3.97l-18.48 11 13.93 33.98Z" style="fill:#5d67bc;stroke-width:0"/><path d="M714 576.34c2.75 4.79-5.09 14.44-17.5 21.55-12.41 7.11-24.69 8.99-27.44 4.2s5.09-14.44 17.5-21.55c12.41-7.11 24.69-8.99 27.44-4.2Z" class="cls-17"/><path d="M689.17 586.26c1.34 1.67-1.08 5.85-5.41 9.33-4.33 3.48-8.93 4.95-10.27 3.27-1.34-1.67 1.08-5.85 5.41-9.33 4.33-3.48 8.93-4.95 10.27-3.27Z" class="cls-18"/><path d="M699.54 431.09c7.22 12.59-20.25 41.9-61.35 65.46-41.1 23.56-80.27 32.45-87.49 19.85-7.22-12.59 20.25-41.9 61.35-65.46 41.1-23.56 80.27-32.45 87.49-19.85Z" class="cls-20"/><path d="M726.58 478.27c-15.9-27.73-50.47-10.82-91.57 12.74s-73.16 44.84-57.27 72.57c0 0 15.2-32.05 64.35-60.22 49.15-28.17 84.48-25.09 84.48-25.09Z" class="cls-20"/><path d="M673.87 563.56c-68.84 39.46-115.99 86.55-105.31 105.17 10.68 18.63 75.14 1.74 143.98-37.72 68.84-39.46 115.99-86.55 105.31-105.17-10.68-18.63-75.14-1.74-143.98 37.72Zm35.25 61.5c-62.37 35.75-119.67 52.99-127.97 38.5-8.31-14.49 35.52-55.22 97.9-90.97 62.37-35.75 119.67-52.99 127.97-38.5 8.31 14.49-35.52 55.22-97.9 90.97Z" class="cls-8"/><path d="m644.27 435.24 30.31 52.87c25.41-9.35 43.69-10.04 49.77-9.94.74.03 1.48.05 2.23.09l-27.04-47.17c-5.27-9.2-27.6-6.92-55.27 4.15Z" style="fill:#3b3978;stroke-width:0"/><path d="m554.86 509.66 24.07 41.99c2.72-4.4 7.87-11.76 16.25-20.5l-24.77-43.21c-8.12 8.05-13.58 15.58-15.56 21.72ZM577.21 481.63l24.63 42.97c5.34-4.97 11.67-10.22 19.11-15.51l-24.31-42.42c-7.24 4.96-13.77 10.01-19.43 14.96ZM614.61 455.41c-3.58 2.05-7.05 4.15-10.4 6.28L628.46 504c3.28-2.12 6.71-4.24 10.37-6.34 3.66-2.1 7.22-3.99 10.71-5.75l-24.25-42.31a283.8 283.8 0 0 0-10.68 5.8ZM633.41 445.6l24.31 42.42c8.33-3.74 16.05-6.55 23.05-8.65l-24.63-42.97c-7.13 2.38-14.79 5.47-22.73 9.21Z" class="cls-3"/><path d="m665.02 433.72 24.77 43.21c11.78-2.82 20.73-3.54 25.9-3.66l-24.07-41.99c-6.3-1.4-15.55-.49-26.6 2.45Z" style="fill:#2e3063;stroke-width:0"/><path d="m558.36 511.45 19.82 34.57c2.24-3.62 6.48-9.68 13.38-16.88l-20.39-35.57c-6.68 6.62-11.18 12.82-12.81 17.88ZM581.11 484.1l20.28 35.38c4.4-4.09 9.61-8.42 15.73-12.77l-20.02-34.92c-5.96 4.08-11.34 8.24-16 12.32Z" class="cls-17"/><path d="M616.76 459.17c-2.95 1.69-5.8 3.42-8.56 5.17l19.97 34.83c2.7-1.75 5.53-3.49 8.54-5.22 3.01-1.72 5.94-3.29 8.82-4.73l-19.97-34.83c-2.91 1.5-5.84 3.09-8.79 4.78ZM637.59 448.58l20.02 34.92c6.85-3.08 13.22-5.39 18.97-7.12L656.3 441c-5.87 1.96-12.17 4.5-18.71 7.58Z" class="cls-16"/><path d="m669.5 437.21 20.39 35.57c9.7-2.32 17.07-2.91 21.33-3.02l-19.82-34.57c-5.19-1.15-12.81-.41-21.9 2.01Z" style="fill:#5e76b2;stroke-width:0"/><path d="M563.73 366.64c47.88-27.45 88.16-35.26 101.1-26.82l-3.73-6.5c-19.46-5.21-58.5 5.69-99.68 29.29-41.18 23.61-70.32 51.78-75.66 71.21l3.73 6.5c-.74-15.43 26.35-46.23 74.24-73.68Z" class="cls-8"/><path d="M558.24 357.06c45.46-26.06 84.09-34.94 99.7-29.26l-3.18-5.54c-20.41-3.64-58.58 7.66-98.85 30.74-40.27 23.08-69.31 50.31-76.48 69.76l3.18 5.54c2.99-16.34 30.17-45.18 75.64-71.24Z" class="cls-8"/><path d="M552.53 347.1c45.45-26.05 84.06-34.94 99.69-29.28l-3.18-5.54c-20.42-3.62-58.58 7.68-98.84 30.76-40.26 23.07-69.3 50.29-76.49 69.74l3.18 5.54c3.02-16.35 30.2-45.17 75.65-71.22Z" class="cls-8"/><path d="M607.43 345.96c27.52-10.11 48.67-11.82 57.39-6.13l-3.73-6.5c-12.3-3.3-32.44-.14-55.99 8.58l2.32 4.05ZM601.86 336.24c25.58-9.61 45.8-12.17 56.07-8.44l-3.18-5.54c-12.75-2.27-32.44 1.29-55.23 9.9l2.34 4.08ZM596.16 326.28c25.56-9.6 45.78-12.18 56.06-8.46l-3.18-5.54c-12.76-2.26-32.44 1.3-55.22 9.92l2.34 4.08Z" class="cls-13"/></svg>